<mxfile host="Electron" modified="2023-01-03T05:58:42.817Z" agent="5.0 (Macintosh; Intel Mac OS X 10_15_7) AppleWebKit/537.36 (KHTML, like Gecko) draw.io/20.7.4 Chrome/106.0.5249.199 Electron/21.3.3 Safari/537.36" etag="PcrZuG3XuZsrohpo7u4G" compressed="false" version="20.7.4" type="device" pages="3">
  <diagram id="pEV_gRsmx3kbOg-bNzZT" name="Sheet-1">
    <mxGraphModel dx="1605" dy="1012" grid="1" gridSize="10" guides="1" tooltips="1" connect="1" arrows="1" fold="1" page="1" pageScale="1" pageWidth="1654" pageHeight="1169" math="0" shadow="0">
      <root>
        <mxCell id="0" />
        <mxCell id="1" value="Frame" style="locked=1;" parent="0" />
        <mxCell id="PsuQeT3vUBbd_4kb42-Q-35" value="" style="rounded=0;whiteSpace=wrap;html=1;fillColor=none;" parent="1" vertex="1">
          <mxGeometry x="35" y="30" width="1603" height="1119" as="geometry" />
        </mxCell>
        <mxCell id="PsuQeT3vUBbd_4kb42-Q-58" value="" style="rounded=0;whiteSpace=wrap;html=1;fontFamily=AkkuratStd;fontSize=10;fontColor=#080808;align=right;fillColor=none;" parent="1" vertex="1">
          <mxGeometry x="766" y="1089.5" width="180" height="20" as="geometry" />
        </mxCell>
        <mxCell id="PsuQeT3vUBbd_4kb42-Q-60" value="" style="rounded=0;whiteSpace=wrap;html=1;fontFamily=AkkuratStd;fontSize=10;fontColor=#080808;align=right;fillColor=none;" parent="1" vertex="1">
          <mxGeometry x="766" y="1109.5" width="180" height="20" as="geometry" />
        </mxCell>
        <mxCell id="PsuQeT3vUBbd_4kb42-Q-36" value="" style="rounded=0;whiteSpace=wrap;html=1;fillColor=#080808;" parent="1" vertex="1">
          <mxGeometry x="36" y="1024" width="1602" height="15" as="geometry" />
        </mxCell>
        <mxCell id="PsuQeT3vUBbd_4kb42-Q-37" value="CLIENT" style="text;html=1;strokeColor=none;fillColor=none;align=left;verticalAlign=middle;whiteSpace=wrap;rounded=0;fontColor=#FFFFFF;fontFamily=AkkuratStd;fontSize=10;" parent="1" vertex="1">
          <mxGeometry x="36" y="1024" width="98" height="15" as="geometry" />
        </mxCell>
        <mxCell id="PsuQeT3vUBbd_4kb42-Q-38" value="" style="rounded=0;whiteSpace=wrap;html=1;fillColor=#080808;" parent="1" vertex="1">
          <mxGeometry x="36" y="1081.5" width="160" height="15" as="geometry" />
        </mxCell>
        <mxCell id="PsuQeT3vUBbd_4kb42-Q-40" value="" style="endArrow=none;html=1;fontSize=10;fontColor=#FFFFFF;" parent="1" edge="1">
          <mxGeometry width="50" height="50" relative="1" as="geometry">
            <mxPoint x="197" y="1149.5" as="sourcePoint" />
            <mxPoint x="197" y="1031.5" as="targetPoint" />
          </mxGeometry>
        </mxCell>
        <mxCell id="PsuQeT3vUBbd_4kb42-Q-41" value="-" style="text;html=1;strokeColor=none;fillColor=none;align=left;verticalAlign=top;whiteSpace=wrap;rounded=0;fontSize=10;fontColor=#080808;fontFamily=AkkuratStd;spacingTop=-5;spacing=4;" parent="1" vertex="1">
          <mxGeometry x="36" y="1039" width="160" height="42.5" as="geometry" />
        </mxCell>
        <mxCell id="PsuQeT3vUBbd_4kb42-Q-42" value="-" style="text;html=1;strokeColor=none;fillColor=none;align=left;verticalAlign=top;whiteSpace=wrap;rounded=0;fontSize=10;fontColor=#080808;fontFamily=AkkuratStd;spacingTop=-5;spacing=4;" parent="1" vertex="1">
          <mxGeometry x="36" y="1096.5" width="160" height="42.5" as="geometry" />
        </mxCell>
        <mxCell id="PsuQeT3vUBbd_4kb42-Q-43" value="" style="endArrow=none;html=1;fontSize=10;fontColor=#FFFFFF;" parent="1" edge="1">
          <mxGeometry width="50" height="50" relative="1" as="geometry">
            <mxPoint x="416" y="1149" as="sourcePoint" />
            <mxPoint x="416" y="1030.5" as="targetPoint" />
          </mxGeometry>
        </mxCell>
        <mxCell id="PsuQeT3vUBbd_4kb42-Q-44" value="AUTHOR" style="text;html=1;strokeColor=none;fillColor=none;align=left;verticalAlign=middle;whiteSpace=wrap;rounded=0;fontColor=#FFFFFF;fontFamily=AkkuratStd;fontSize=10;" parent="1" vertex="1">
          <mxGeometry x="416" y="1024" width="98" height="15" as="geometry" />
        </mxCell>
        <mxCell id="PsuQeT3vUBbd_4kb42-Q-46" value="" style="endArrow=none;html=1;fontSize=10;fontColor=#FFFFFF;" parent="1" edge="1">
          <mxGeometry width="50" height="50" relative="1" as="geometry">
            <mxPoint x="766.0000000000005" y="1149" as="sourcePoint" />
            <mxPoint x="766.0000000000005" y="1031" as="targetPoint" />
          </mxGeometry>
        </mxCell>
        <mxCell id="PsuQeT3vUBbd_4kb42-Q-51" value="" style="group" parent="1" vertex="1" connectable="0">
          <mxGeometry x="766" y="1031.5" width="360" height="22.5" as="geometry" />
        </mxCell>
        <mxCell id="PsuQeT3vUBbd_4kb42-Q-52" value="" style="rounded=0;whiteSpace=wrap;html=1;fillColor=#080808;" parent="PsuQeT3vUBbd_4kb42-Q-51" vertex="1">
          <mxGeometry width="359.99999999999994" height="21.09375" as="geometry" />
        </mxCell>
        <mxCell id="PsuQeT3vUBbd_4kb42-Q-53" value="Example" style="text;html=1;strokeColor=none;fillColor=none;align=left;verticalAlign=middle;whiteSpace=wrap;rounded=0;fontColor=#FFFFFF;fontFamily=AkkuratStd;fontSize=13;spacingLeft=3;" parent="PsuQeT3vUBbd_4kb42-Q-51" vertex="1">
          <mxGeometry width="360" height="22.5" as="geometry" />
        </mxCell>
        <mxCell id="PsuQeT3vUBbd_4kb42-Q-54" value="&lt;div&gt;&lt;span style=&quot;font-size: 12px&quot;&gt;&lt;b&gt;Sheet 1&lt;/b&gt;&lt;/span&gt;&lt;/div&gt;  " style="text;strokeColor=none;fillColor=none;align=left;verticalAlign=top;rounded=0;fontSize=10;fontColor=#080808;fontFamily=AkkuratStd;spacingTop=-5;spacing=4;whiteSpace=wrap;html=1;" parent="1" vertex="1">
          <mxGeometry x="766" y="1053" width="360" height="37.5" as="geometry" />
        </mxCell>
        <mxCell id="PsuQeT3vUBbd_4kb42-Q-55" value="" style="endArrow=none;html=1;fontSize=10;fontColor=#FFFFFF;" parent="1" edge="1">
          <mxGeometry width="50" height="50" relative="1" as="geometry">
            <mxPoint x="1126" y="1149.5" as="sourcePoint" />
            <mxPoint x="1126" y="1031.5" as="targetPoint" />
          </mxGeometry>
        </mxCell>
        <mxCell id="PsuQeT3vUBbd_4kb42-Q-56" value="&lt;div&gt;&lt;font style=&quot;font-size: 10px&quot;&gt;Status:&lt;/font&gt;&lt;/div&gt;  " style="text;strokeColor=none;fillColor=none;align=left;verticalAlign=top;rounded=0;fontSize=10;fontColor=#080808;fontFamily=AkkuratStd;spacingTop=-5;spacing=4;whiteSpace=wrap;html=1;connectable=0;" parent="1" vertex="1">
          <mxGeometry x="766" y="1089.5" width="60" height="20" as="geometry" />
        </mxCell>
        <mxCell id="PsuQeT3vUBbd_4kb42-Q-57" value="&lt;div&gt;&lt;font style=&quot;font-size: 10px&quot;&gt;Date:&lt;/font&gt;&lt;/div&gt;  " style="text;strokeColor=none;fillColor=none;align=left;verticalAlign=top;rounded=0;fontSize=10;fontColor=#080808;fontFamily=AkkuratStd;spacingTop=-5;spacing=4;whiteSpace=wrap;html=1;connectable=0;" parent="1" vertex="1">
          <mxGeometry x="766" y="1109.5" width="60" height="20" as="geometry" />
        </mxCell>
        <mxCell id="PsuQeT3vUBbd_4kb42-Q-59" value="John Doe" style="rounded=0;whiteSpace=wrap;html=1;fontFamily=AkkuratStd;fontSize=10;fontColor=#080808;align=right;fillColor=none;connectable=0;" parent="1" vertex="1">
          <mxGeometry x="946" y="1089.5" width="180" height="20" as="geometry" />
        </mxCell>
        <mxCell id="PsuQeT3vUBbd_4kb42-Q-61" value="1" style="rounded=0;whiteSpace=wrap;html=1;fontFamily=AkkuratStd;fontSize=10;fontColor=#080808;align=right;fillColor=none;connectable=0;" parent="1" vertex="1">
          <mxGeometry x="946" y="1109.5" width="180" height="20" as="geometry" />
        </mxCell>
        <mxCell id="PsuQeT3vUBbd_4kb42-Q-62" value="&lt;font style=&quot;font-size: 6px&quot;&gt;example.drawio&lt;/font&gt;" style="rounded=0;whiteSpace=wrap;html=1;fontFamily=AkkuratStd;fontSize=10;fontColor=#080808;align=right;fillColor=none;connectable=0;" parent="1" vertex="1">
          <mxGeometry x="946" y="1129.5" width="180" height="19.5" as="geometry" />
        </mxCell>
        <mxCell id="PsuQeT3vUBbd_4kb42-Q-63" value="&lt;div&gt;&lt;font style=&quot;font-size: 10px&quot;&gt;Verfasser:&lt;/font&gt;&lt;/div&gt;  " style="text;strokeColor=none;fillColor=none;align=left;verticalAlign=top;rounded=0;fontSize=10;fontColor=#080808;fontFamily=AkkuratStd;spacingTop=-5;spacing=4;whiteSpace=wrap;html=1;connectable=0;" parent="1" vertex="1">
          <mxGeometry x="946" y="1089.5" width="60" height="20" as="geometry" />
        </mxCell>
        <mxCell id="PsuQeT3vUBbd_4kb42-Q-64" value="&lt;div&gt;&lt;font style=&quot;font-size: 10px&quot;&gt;Plannummer:&lt;/font&gt;&lt;/div&gt;  " style="text;strokeColor=none;fillColor=none;align=left;verticalAlign=top;rounded=0;fontSize=10;fontColor=#080808;fontFamily=AkkuratStd;spacingTop=-5;spacing=4;whiteSpace=wrap;html=1;connectable=0;" parent="1" vertex="1">
          <mxGeometry x="946" y="1109.5" width="60" height="20" as="geometry" />
        </mxCell>
        <mxCell id="PsuQeT3vUBbd_4kb42-Q-65" value="&lt;div&gt;&lt;font style=&quot;font-size: 10px&quot;&gt;Filename:&lt;/font&gt;&lt;/div&gt;  " style="text;strokeColor=none;fillColor=none;align=left;verticalAlign=top;rounded=0;fontSize=10;fontColor=#080808;fontFamily=AkkuratStd;spacingTop=-5;spacing=4;whiteSpace=wrap;html=1;connectable=0;" parent="1" vertex="1">
          <mxGeometry x="946" y="1129.5" width="60" height="20" as="geometry" />
        </mxCell>
        <mxCell id="PsuQeT3vUBbd_4kb42-Q-66" value="NOTES" style="text;html=1;strokeColor=none;fillColor=none;align=left;verticalAlign=middle;whiteSpace=wrap;rounded=0;fontColor=#FFFFFF;fontFamily=AkkuratStd;fontSize=10;" parent="1" vertex="1">
          <mxGeometry x="1126" y="1024" width="98" height="15" as="geometry" />
        </mxCell>
        <mxCell id="PsuQeT3vUBbd_4kb42-Q-69" value="&lt;div&gt;&lt;font style=&quot;font-size: 10px&quot;&gt;1&lt;/font&gt;&lt;/div&gt;  " style="text;strokeColor=none;fillColor=none;align=right;verticalAlign=top;rounded=0;fontSize=10;fontColor=#080808;fontFamily=AkkuratStd;spacingTop=-5;spacing=4;whiteSpace=wrap;html=1;connectable=0;" parent="1" vertex="1">
          <mxGeometry x="820" y="1089.5" width="126" height="20" as="geometry" />
        </mxCell>
        <mxCell id="PsuQeT3vUBbd_4kb42-Q-70" value="&lt;div&gt;dd.mm.yyyy&lt;/div&gt;  " style="text;strokeColor=none;fillColor=none;align=right;verticalAlign=top;rounded=0;fontSize=10;fontColor=#080808;fontFamily=AkkuratStd;spacingTop=-5;spacing=4;whiteSpace=wrap;html=1;connectable=0;" parent="1" vertex="1">
          <mxGeometry x="820" y="1109.5" width="126" height="20" as="geometry" />
        </mxCell>
        <mxCell id="GQoI2PiIDdOTHmRrfyBq-2" value="Drawing" parent="0" />
        <object label="Device 3&lt;br&gt;&lt;span style=&quot;font-size: 6px&quot;&gt;some, othertype&lt;/span&gt;" type="device" id="GQoI2PiIDdOTHmRrfyBq-3">
          <mxCell style="rounded=0;whiteSpace=wrap;html=1;align=center;verticalAlign=top;fontStyle=1;container=1;fillColor=#f5f5f5;strokeColor=#666666;fontColor=#333333;connectable=0;collapsible=0;dropTarget=1;metaEdit=0;recursiveResize=0;resizable=1;resizeHeight=0;allowArrows=0;noLabel=0;labelPadding=0;perimeter=rectanglePerimeter;" parent="GQoI2PiIDdOTHmRrfyBq-2" vertex="1">
            <mxGeometry x="360" y="780" width="120" height="100" as="geometry">
              <mxRectangle width="90" height="40" as="alternateBounds" />
            </mxGeometry>
          </mxCell>
        </object>
        <mxCell id="GQoI2PiIDdOTHmRrfyBq-4" value="Output 1" style="text;html=1;strokeColor=none;fillColor=none;align=right;verticalAlign=middle;rounded=0;fontSize=10;spacingLeft=2;spacingRight=2;fontStyle=0;container=0;resizeHeight=1;" parent="GQoI2PiIDdOTHmRrfyBq-3" vertex="1">
          <mxGeometry x="60" y="40" width="60" height="20" as="geometry" />
        </mxCell>
        <mxCell id="GQoI2PiIDdOTHmRrfyBq-5" value="Input 1" style="text;html=1;strokeColor=none;fillColor=none;align=left;verticalAlign=middle;rounded=0;fontSize=10;fontStyle=0;container=0;spacingRight=2;spacingLeft=2;" parent="GQoI2PiIDdOTHmRrfyBq-3" vertex="1">
          <mxGeometry y="40" width="60" height="20" as="geometry" />
        </mxCell>
        <mxCell id="GQoI2PiIDdOTHmRrfyBq-6" value="Input 2" style="text;html=1;strokeColor=none;fillColor=none;align=left;verticalAlign=middle;rounded=0;fontSize=10;fontStyle=0;container=0;spacingRight=2;spacingLeft=2;" parent="GQoI2PiIDdOTHmRrfyBq-3" vertex="1">
          <mxGeometry y="60" width="60" height="20" as="geometry" />
        </mxCell>
        <mxCell id="GQoI2PiIDdOTHmRrfyBq-7" value="Power" style="text;html=1;strokeColor=none;fillColor=none;align=left;verticalAlign=middle;rounded=0;fontSize=10;fontStyle=0;container=0;spacingRight=2;spacingLeft=2;" parent="GQoI2PiIDdOTHmRrfyBq-3" vertex="1">
          <mxGeometry y="80" width="60" height="20" as="geometry" />
        </mxCell>
        <mxCell id="GQoI2PiIDdOTHmRrfyBq-8" value="Output 2" style="text;html=1;strokeColor=none;fillColor=none;align=right;verticalAlign=middle;rounded=0;fontSize=10;spacingLeft=2;spacingRight=2;fontStyle=0;container=0;" parent="GQoI2PiIDdOTHmRrfyBq-3" vertex="1">
          <mxGeometry x="60" y="60" width="60" height="20" as="geometry" />
        </mxCell>
        <mxCell id="GQoI2PiIDdOTHmRrfyBq-9" value="" style="group" parent="GQoI2PiIDdOTHmRrfyBq-2" vertex="1" connectable="0">
          <mxGeometry x="990" y="300" width="120" height="111" as="geometry" />
        </mxCell>
        <mxCell id="GQoI2PiIDdOTHmRrfyBq-10" value="" style="endArrow=none;dashed=1;html=1;strokeWidth=2;fontSize=10;fontColor=#FFFFFF;exitX=0.5;exitY=0;exitDx=0;exitDy=0;dashPattern=1 1;entryX=0.5;entryY=1;entryDx=0;entryDy=0;spacingLeft=4;spacingRight=4;fontStyle=0;rounded=0;" parent="GQoI2PiIDdOTHmRrfyBq-9" source="GQoI2PiIDdOTHmRrfyBq-13" target="GQoI2PiIDdOTHmRrfyBq-15" edge="1">
          <mxGeometry y="-9" width="50" height="50" as="geometry">
            <mxPoint x="30" y="131" as="sourcePoint" />
            <mxPoint x="30" y="61" as="targetPoint" />
          </mxGeometry>
        </mxCell>
        <mxCell id="GQoI2PiIDdOTHmRrfyBq-11" value="" style="shape=tape;whiteSpace=wrap;html=1;labelBackgroundColor=#ffffff;fillColor=#f5f5f5;fontSize=10;align=right;labelBorderColor=none;size=0.2;strokeColor=#666666;fontColor=#333333;spacingLeft=4;spacingRight=4;fontStyle=0;container=0;" parent="GQoI2PiIDdOTHmRrfyBq-9" vertex="1">
          <mxGeometry y="51" width="120" height="40" as="geometry" />
        </mxCell>
        <mxCell id="GQoI2PiIDdOTHmRrfyBq-12" value="" style="shape=tape;whiteSpace=wrap;html=1;labelBackgroundColor=#ffffff;fillColor=#f5f5f5;fontSize=10;align=right;labelBorderColor=none;size=0.2;strokeColor=#666666;fontColor=#333333;spacingLeft=4;spacingRight=4;fontStyle=0;container=0;" parent="GQoI2PiIDdOTHmRrfyBq-9" vertex="1">
          <mxGeometry y="71" width="120" height="40" as="geometry" />
        </mxCell>
        <mxCell id="GQoI2PiIDdOTHmRrfyBq-13" value="" style="rounded=0;whiteSpace=wrap;html=1;align=center;verticalAlign=top;fontStyle=1;container=0;fillColor=#f5f5f5;strokeColor=#666666;fontColor=#333333;spacingLeft=4;spacingRight=4;" parent="GQoI2PiIDdOTHmRrfyBq-9" vertex="1">
          <mxGeometry y="61" width="120" height="40" as="geometry" />
        </mxCell>
        <mxCell id="GQoI2PiIDdOTHmRrfyBq-14" value="" style="shape=tape;whiteSpace=wrap;html=1;labelBackgroundColor=#ffffff;fillColor=#f5f5f5;fontSize=10;align=right;labelBorderColor=none;size=0.2;strokeColor=#666666;fontColor=#333333;spacingLeft=4;spacingRight=4;fontStyle=0;container=0;" parent="GQoI2PiIDdOTHmRrfyBq-9" vertex="1">
          <mxGeometry y="1" width="120" height="50" as="geometry" />
        </mxCell>
        <mxCell id="GQoI2PiIDdOTHmRrfyBq-15" value="Device 4&lt;br&gt;&lt;font style=&quot;font-size: 6px&quot;&gt;poe, swq&lt;/font&gt;" style="rounded=0;whiteSpace=wrap;html=1;align=center;verticalAlign=top;fontStyle=1;container=0;fillColor=#f5f5f5;strokeColor=#666666;fontColor=#333333;spacingLeft=4;spacingRight=4;" parent="GQoI2PiIDdOTHmRrfyBq-9" vertex="1">
          <mxGeometry width="120" height="40" as="geometry" />
        </mxCell>
        <mxCell id="GQoI2PiIDdOTHmRrfyBq-16" value="Output 01" style="text;html=1;strokeColor=none;fillColor=none;align=right;verticalAlign=middle;rounded=0;fontSize=10;spacingLeft=4;spacingRight=4;fontStyle=0;container=0;" parent="GQoI2PiIDdOTHmRrfyBq-9" vertex="1">
          <mxGeometry x="60" y="61" width="60" height="20" as="geometry" />
        </mxCell>
        <mxCell id="GQoI2PiIDdOTHmRrfyBq-17" value="Output 02" style="text;html=1;strokeColor=none;fillColor=none;align=right;verticalAlign=middle;rounded=0;fontSize=10;spacingLeft=4;spacingRight=4;fontStyle=0;container=0;" parent="GQoI2PiIDdOTHmRrfyBq-9" vertex="1">
          <mxGeometry x="60" y="81" width="60" height="20" as="geometry" />
        </mxCell>
        <mxCell id="GQoI2PiIDdOTHmRrfyBq-18" value="" style="endArrow=none;html=1;fontSize=10;exitX=0;exitY=1;exitDx=0;exitDy=0;entryX=1;entryY=1;entryDx=0;entryDy=0;fontColor=#FFFFFF;rounded=0;strokeWidth=2;targetPerimeterSpacing=0;sourcePerimeterSpacing=0;strokeColor=#F5F5F5;spacingLeft=4;spacingRight=4;fontStyle=0" parent="GQoI2PiIDdOTHmRrfyBq-9" source="GQoI2PiIDdOTHmRrfyBq-15" target="GQoI2PiIDdOTHmRrfyBq-15" edge="1">
          <mxGeometry y="-9" width="50" height="50" as="geometry">
            <mxPoint x="60" y="181" as="sourcePoint" />
            <mxPoint x="110" y="131" as="targetPoint" />
          </mxGeometry>
        </mxCell>
        <mxCell id="GQoI2PiIDdOTHmRrfyBq-19" value="" style="endArrow=none;html=1;fontSize=10;exitX=0;exitY=0;exitDx=0;exitDy=0;entryX=1;entryY=0;entryDx=0;entryDy=0;fontColor=#FFFFFF;rounded=0;strokeWidth=2;targetPerimeterSpacing=0;sourcePerimeterSpacing=0;strokeColor=#F5F5F5;spacingLeft=4;spacingRight=4;fontStyle=0" parent="GQoI2PiIDdOTHmRrfyBq-9" source="GQoI2PiIDdOTHmRrfyBq-13" target="GQoI2PiIDdOTHmRrfyBq-13" edge="1">
          <mxGeometry y="-9.329999999999927" width="50" height="50" as="geometry">
            <mxPoint y="60.66999999999996" as="sourcePoint" />
            <mxPoint x="120" y="60.66999999999996" as="targetPoint" />
          </mxGeometry>
        </mxCell>
        <mxCell id="GQoI2PiIDdOTHmRrfyBq-20" value="" style="endArrow=none;html=1;fontSize=10;exitX=0;exitY=1;exitDx=0;exitDy=0;entryX=1;entryY=1;entryDx=0;entryDy=0;fontColor=#FFFFFF;rounded=0;strokeWidth=2;targetPerimeterSpacing=0;sourcePerimeterSpacing=0;strokeColor=#F5F5F5;spacingLeft=4;spacingRight=4;fontStyle=0" parent="GQoI2PiIDdOTHmRrfyBq-9" source="GQoI2PiIDdOTHmRrfyBq-13" target="GQoI2PiIDdOTHmRrfyBq-13" edge="1">
          <mxGeometry x="10" y="0.6700000000000728" width="50" height="50" as="geometry">
            <mxPoint x="10" y="71" as="sourcePoint" />
            <mxPoint x="130" y="71" as="targetPoint" />
          </mxGeometry>
        </mxCell>
        <mxCell id="GQoI2PiIDdOTHmRrfyBq-21" value="Input 1" style="text;html=1;strokeColor=none;fillColor=none;align=left;verticalAlign=middle;rounded=0;fontSize=10;fontStyle=0;container=0;spacingRight=2;spacingLeft=2;" parent="GQoI2PiIDdOTHmRrfyBq-9" vertex="1">
          <mxGeometry y="61" width="60" height="20" as="geometry" />
        </mxCell>
        <mxCell id="GQoI2PiIDdOTHmRrfyBq-22" value="Input 2" style="text;html=1;strokeColor=none;fillColor=none;align=left;verticalAlign=middle;rounded=0;fontSize=10;fontStyle=0;container=0;spacingRight=2;spacingLeft=2;" parent="GQoI2PiIDdOTHmRrfyBq-9" vertex="1">
          <mxGeometry y="81" width="60" height="20" as="geometry" />
        </mxCell>
        <mxCell id="GQoI2PiIDdOTHmRrfyBq-23" value="" style="group;spacingLeft=4;spacingRight=4;" parent="GQoI2PiIDdOTHmRrfyBq-2" vertex="1" connectable="0">
          <mxGeometry x="450" y="340" width="200" height="60" as="geometry" />
        </mxCell>
        <mxCell id="GQoI2PiIDdOTHmRrfyBq-24" value="" style="group;spacingLeft=4;spacingRight=4;" parent="GQoI2PiIDdOTHmRrfyBq-23" vertex="1" connectable="0">
          <mxGeometry width="200" height="60" as="geometry" />
        </mxCell>
        <mxCell id="GQoI2PiIDdOTHmRrfyBq-25" value="" style="endArrow=none;dashed=1;html=1;strokeWidth=2;fontSize=10;fontColor=#FFFFFF;entryX=1;entryY=0.5;entryDx=0;entryDy=0;dashPattern=1 1;exitX=0;exitY=0.5;exitDx=0;exitDy=0;spacingLeft=4;spacingRight=4;rounded=0;" parent="GQoI2PiIDdOTHmRrfyBq-24" source="GQoI2PiIDdOTHmRrfyBq-31" target="GQoI2PiIDdOTHmRrfyBq-28" edge="1">
          <mxGeometry x="60" y="-160" width="50" height="50" as="geometry">
            <mxPoint x="80" y="19" as="sourcePoint" />
            <mxPoint x="119.03999999999996" y="-104.85000000000002" as="targetPoint" />
          </mxGeometry>
        </mxCell>
        <mxCell id="GQoI2PiIDdOTHmRrfyBq-26" value="Port 1" style="text;html=1;strokeColor=none;fillColor=none;align=right;verticalAlign=middle;rounded=0;fontSize=10;spacingLeft=4;spacingRight=4;fontStyle=0;container=0;" parent="GQoI2PiIDdOTHmRrfyBq-24" vertex="1">
          <mxGeometry x="140" y="20" width="60" height="20" as="geometry" />
        </mxCell>
        <mxCell id="GQoI2PiIDdOTHmRrfyBq-27" value="" style="shape=tape;whiteSpace=wrap;html=1;labelBackgroundColor=#ffffff;fillColor=#f5f5f5;fontSize=10;align=right;labelBorderColor=none;size=0.2;strokeColor=#666666;fontColor=#333333;rotation=90;spacingLeft=4;spacingRight=4;" parent="GQoI2PiIDdOTHmRrfyBq-24" vertex="1">
          <mxGeometry x="20" y="20" width="60" height="20" as="geometry" />
        </mxCell>
        <mxCell id="GQoI2PiIDdOTHmRrfyBq-28" value="ELCB 56h" style="rounded=0;whiteSpace=wrap;html=1;align=center;verticalAlign=middle;fontStyle=1;container=0;fillColor=#f5f5f5;strokeColor=#666666;fontColor=#333333;spacingLeft=4;spacingRight=4;" parent="GQoI2PiIDdOTHmRrfyBq-24" vertex="1">
          <mxGeometry width="50" height="60" as="geometry" />
        </mxCell>
        <mxCell id="GQoI2PiIDdOTHmRrfyBq-29" value="" style="endArrow=none;html=1;fontSize=10;exitX=1;exitY=0;exitDx=0;exitDy=0;entryX=1;entryY=1;entryDx=0;entryDy=0;fontColor=#FFFFFF;rounded=0;strokeWidth=2;targetPerimeterSpacing=0;sourcePerimeterSpacing=0;strokeColor=#F5F5F5;spacingLeft=4;spacingRight=4;" parent="GQoI2PiIDdOTHmRrfyBq-24" source="GQoI2PiIDdOTHmRrfyBq-28" target="GQoI2PiIDdOTHmRrfyBq-28" edge="1">
          <mxGeometry x="70" y="-150.32999999999993" width="50" height="50" as="geometry">
            <mxPoint x="90" y="10" as="sourcePoint" />
            <mxPoint x="90" y="50" as="targetPoint" />
          </mxGeometry>
        </mxCell>
        <mxCell id="GQoI2PiIDdOTHmRrfyBq-30" value="" style="shape=tape;whiteSpace=wrap;html=1;labelBackgroundColor=#ffffff;fillColor=#f5f5f5;fontSize=10;align=right;labelBorderColor=none;size=0.2;strokeColor=#666666;fontColor=#333333;rotation=90;spacingLeft=4;spacingRight=4;" parent="GQoI2PiIDdOTHmRrfyBq-24" vertex="1">
          <mxGeometry x="50" y="20" width="60" height="20" as="geometry" />
        </mxCell>
        <mxCell id="GQoI2PiIDdOTHmRrfyBq-31" value="Power Socket" style="rounded=0;whiteSpace=wrap;html=1;align=center;verticalAlign=top;fontStyle=1;container=0;fillColor=#f5f5f5;strokeColor=#666666;fontColor=#333333;spacingLeft=4;spacingRight=4;" parent="GQoI2PiIDdOTHmRrfyBq-24" vertex="1">
          <mxGeometry x="80" width="120" height="60" as="geometry" />
        </mxCell>
        <mxCell id="GQoI2PiIDdOTHmRrfyBq-32" value="" style="endArrow=none;html=1;fontSize=10;exitX=0;exitY=0;exitDx=0;exitDy=0;entryX=0;entryY=1;entryDx=0;entryDy=0;fontColor=#FFFFFF;rounded=0;strokeWidth=2;targetPerimeterSpacing=0;sourcePerimeterSpacing=0;strokeColor=#F5F5F5;spacingLeft=4;spacingRight=4;" parent="GQoI2PiIDdOTHmRrfyBq-24" source="GQoI2PiIDdOTHmRrfyBq-31" target="GQoI2PiIDdOTHmRrfyBq-31" edge="1">
          <mxGeometry x="60" y="-160.32999999999993" width="50" height="50" as="geometry">
            <mxPoint x="50" y="-20" as="sourcePoint" />
            <mxPoint x="170" y="-20" as="targetPoint" />
          </mxGeometry>
        </mxCell>
        <mxCell id="GQoI2PiIDdOTHmRrfyBq-33" value="Port 1" style="text;html=1;strokeColor=none;fillColor=none;align=right;verticalAlign=middle;rounded=0;fontSize=10;spacingLeft=4;spacingRight=4;fontStyle=0;container=0;" parent="GQoI2PiIDdOTHmRrfyBq-24" vertex="1">
          <mxGeometry x="140" y="20" width="60" height="20" as="geometry" />
        </mxCell>
        <mxCell id="GQoI2PiIDdOTHmRrfyBq-34" value="Port 2" style="text;html=1;strokeColor=none;fillColor=none;align=right;verticalAlign=middle;rounded=0;fontSize=10;spacingLeft=4;spacingRight=4;fontStyle=0;container=0;" parent="GQoI2PiIDdOTHmRrfyBq-24" vertex="1">
          <mxGeometry x="140" y="40" width="60" height="20" as="geometry" />
        </mxCell>
        <mxCell id="GQoI2PiIDdOTHmRrfyBq-35" value="" style="endArrow=none;html=1;rounded=0;entryX=1;entryY=0.5;entryDx=0;entryDy=0;edgeStyle=entityRelationEdgeStyle;exitX=0;exitY=0.5;exitDx=0;exitDy=0;" parent="GQoI2PiIDdOTHmRrfyBq-2" source="GQoI2PiIDdOTHmRrfyBq-22" target="GQoI2PiIDdOTHmRrfyBq-4" edge="1">
          <mxGeometry width="50" height="50" relative="1" as="geometry">
            <mxPoint x="480" y="830" as="sourcePoint" />
            <mxPoint x="1340" y="650" as="targetPoint" />
          </mxGeometry>
        </mxCell>
        <mxCell id="GQoI2PiIDdOTHmRrfyBq-36" value="x-source" style="edgeLabel;html=1;align=center;verticalAlign=middle;resizable=0;points=[];" parent="GQoI2PiIDdOTHmRrfyBq-35" vertex="1" connectable="0">
          <mxGeometry x="-0.8219" y="-1" relative="1" as="geometry">
            <mxPoint as="offset" />
          </mxGeometry>
        </mxCell>
        <mxCell id="GQoI2PiIDdOTHmRrfyBq-37" value="x-Target" style="edgeLabel;html=1;align=center;verticalAlign=middle;resizable=0;points=[];" parent="GQoI2PiIDdOTHmRrfyBq-35" vertex="1" connectable="0">
          <mxGeometry x="0.8622" y="-2" relative="1" as="geometry">
            <mxPoint as="offset" />
          </mxGeometry>
        </mxCell>
        <mxCell id="s07PlojVqv7Svum-IWFK-1" style="edgeStyle=orthogonalEdgeStyle;rounded=0;orthogonalLoop=1;jettySize=auto;html=1;exitX=1;exitY=0.5;exitDx=0;exitDy=0;entryX=0;entryY=0.5;entryDx=0;entryDy=0;" parent="GQoI2PiIDdOTHmRrfyBq-2" source="GQoI2PiIDdOTHmRrfyBq-33" target="GQoI2PiIDdOTHmRrfyBq-21" edge="1">
          <mxGeometry relative="1" as="geometry">
            <mxPoint x="650" y="370" as="sourcePoint" />
            <mxPoint x="990" y="386" as="targetPoint" />
          </mxGeometry>
        </mxCell>
        <object label="Device 7&lt;br&gt;&lt;span style=&quot;font-size: 6px&quot;&gt;yx, bm&lt;/span&gt;" type="device" id="mil9Uycq5B6bb0wzV9q--1">
          <mxCell style="rounded=0;whiteSpace=wrap;html=1;align=center;verticalAlign=top;fontStyle=1;container=1;fillColor=#f5f5f5;strokeColor=#666666;fontColor=#333333;connectable=0;collapsible=0;dropTarget=1;metaEdit=0;recursiveResize=0;resizable=1;resizeHeight=0;allowArrows=0;noLabel=0;labelPadding=0;perimeter=rectanglePerimeter;" vertex="1" parent="GQoI2PiIDdOTHmRrfyBq-2">
            <mxGeometry x="1320" y="400" width="120" height="100" as="geometry">
              <mxRectangle width="90" height="40" as="alternateBounds" />
            </mxGeometry>
          </mxCell>
        </object>
        <mxCell id="mil9Uycq5B6bb0wzV9q--2" value="Output 1" style="text;html=1;strokeColor=none;fillColor=none;align=right;verticalAlign=middle;rounded=0;fontSize=10;spacingLeft=2;spacingRight=2;fontStyle=0;container=0;resizeHeight=1;" vertex="1" parent="mil9Uycq5B6bb0wzV9q--1">
          <mxGeometry x="60" y="40" width="60" height="20" as="geometry" />
        </mxCell>
        <mxCell id="mil9Uycq5B6bb0wzV9q--3" value="Input 1" style="text;html=1;strokeColor=none;fillColor=none;align=left;verticalAlign=middle;rounded=0;fontSize=10;fontStyle=0;container=0;spacingRight=2;spacingLeft=2;" vertex="1" parent="mil9Uycq5B6bb0wzV9q--1">
          <mxGeometry y="40" width="60" height="20" as="geometry" />
        </mxCell>
        <mxCell id="mil9Uycq5B6bb0wzV9q--4" value="Input 2" style="text;html=1;strokeColor=none;fillColor=none;align=left;verticalAlign=middle;rounded=0;fontSize=10;fontStyle=0;container=0;spacingRight=2;spacingLeft=2;" vertex="1" parent="mil9Uycq5B6bb0wzV9q--1">
          <mxGeometry y="60" width="60" height="20" as="geometry" />
        </mxCell>
        <mxCell id="mil9Uycq5B6bb0wzV9q--5" value="Power" style="text;html=1;strokeColor=none;fillColor=none;align=left;verticalAlign=middle;rounded=0;fontSize=10;fontStyle=0;container=0;spacingRight=2;spacingLeft=2;" vertex="1" parent="mil9Uycq5B6bb0wzV9q--1">
          <mxGeometry y="80" width="60" height="20" as="geometry" />
        </mxCell>
        <mxCell id="mil9Uycq5B6bb0wzV9q--6" value="Output 2" style="text;html=1;strokeColor=none;fillColor=none;align=right;verticalAlign=middle;rounded=0;fontSize=10;spacingLeft=2;spacingRight=2;fontStyle=0;container=0;" vertex="1" parent="mil9Uycq5B6bb0wzV9q--1">
          <mxGeometry x="60" y="60" width="60" height="20" as="geometry" />
        </mxCell>
        <object label="" type="cable" id="mil9Uycq5B6bb0wzV9q--7">
          <mxCell style="endArrow=oval;html=1;labelBackgroundColor=none;startArrow=oval;startFill=1;endFill=1;spacingLeft=2;spacingRight=2;edgeStyle=orthogonalEdgeStyle;rounded=1;fontSize=11;fontColor=#000000;strokeColor=#000000;exitX=1;exitY=0.5;exitDx=0;exitDy=0;entryX=0;entryY=0.5;entryDx=0;entryDy=0;" edge="1" parent="GQoI2PiIDdOTHmRrfyBq-2" source="GQoI2PiIDdOTHmRrfyBq-16" target="mil9Uycq5B6bb0wzV9q--3">
            <mxGeometry relative="1" as="geometry">
              <mxPoint x="870" y="560" as="sourcePoint" />
              <mxPoint x="1030" y="560" as="targetPoint" />
            </mxGeometry>
          </mxCell>
        </object>
        <mxCell id="mil9Uycq5B6bb0wzV9q--8" value="Source" style="edgeLabel;resizable=0;html=1;align=left;verticalAlign=bottom;spacingLeft=2;spacingRight=2;labelBackgroundColor=none;fontSize=11;fontColor=#000000;" connectable="0" vertex="1" parent="mil9Uycq5B6bb0wzV9q--7">
          <mxGeometry x="-1" relative="1" as="geometry" />
        </mxCell>
        <mxCell id="mil9Uycq5B6bb0wzV9q--9" value="Target" style="edgeLabel;resizable=0;html=1;align=right;verticalAlign=bottom;spacingLeft=2;spacingRight=2;labelBackgroundColor=none;fontSize=11;fontColor=#000000;" connectable="0" vertex="1" parent="mil9Uycq5B6bb0wzV9q--7">
          <mxGeometry x="1" relative="1" as="geometry" />
        </mxCell>
        <object label="" type="cable" id="mil9Uycq5B6bb0wzV9q--10">
          <mxCell style="endArrow=oval;html=1;labelBackgroundColor=none;startArrow=oval;startFill=1;endFill=1;spacingLeft=2;spacingRight=2;edgeStyle=orthogonalEdgeStyle;rounded=1;fontSize=11;fontColor=#000000;strokeColor=#000000;exitX=1;exitY=0.5;exitDx=0;exitDy=0;entryX=0;entryY=0.5;entryDx=0;entryDy=0;" edge="1" parent="GQoI2PiIDdOTHmRrfyBq-2" source="GQoI2PiIDdOTHmRrfyBq-17" target="mil9Uycq5B6bb0wzV9q--4">
            <mxGeometry relative="1" as="geometry">
              <mxPoint x="1120" y="381" as="sourcePoint" />
              <mxPoint x="1330" y="460" as="targetPoint" />
              <Array as="points">
                <mxPoint x="1200" y="391" />
                <mxPoint x="1200" y="470" />
              </Array>
            </mxGeometry>
          </mxCell>
        </object>
        <mxCell id="mil9Uycq5B6bb0wzV9q--11" value="Source" style="edgeLabel;resizable=0;html=1;align=left;verticalAlign=bottom;spacingLeft=2;spacingRight=2;labelBackgroundColor=none;fontSize=11;fontColor=#000000;" connectable="0" vertex="1" parent="mil9Uycq5B6bb0wzV9q--10">
          <mxGeometry x="-1" relative="1" as="geometry" />
        </mxCell>
        <mxCell id="mil9Uycq5B6bb0wzV9q--12" value="Target" style="edgeLabel;resizable=0;html=1;align=right;verticalAlign=bottom;spacingLeft=2;spacingRight=2;labelBackgroundColor=none;fontSize=11;fontColor=#000000;" connectable="0" vertex="1" parent="mil9Uycq5B6bb0wzV9q--10">
          <mxGeometry x="1" relative="1" as="geometry" />
        </mxCell>
        <object label="Device 8&lt;br&gt;&lt;span style=&quot;font-size: 6px&quot;&gt;yx, bm&lt;/span&gt;" type="device" id="mil9Uycq5B6bb0wzV9q--13">
          <mxCell style="rounded=0;whiteSpace=wrap;html=1;align=center;verticalAlign=top;fontStyle=1;container=1;fillColor=#f5f5f5;strokeColor=#666666;fontColor=#333333;connectable=0;collapsible=0;dropTarget=1;metaEdit=0;recursiveResize=0;resizable=1;resizeHeight=0;allowArrows=0;noLabel=0;labelPadding=0;perimeter=rectanglePerimeter;" vertex="1" parent="GQoI2PiIDdOTHmRrfyBq-2">
            <mxGeometry x="1320" y="510" width="120" height="80" as="geometry">
              <mxRectangle width="90" height="40" as="alternateBounds" />
            </mxGeometry>
          </mxCell>
        </object>
        <mxCell id="mil9Uycq5B6bb0wzV9q--15" value="DC" style="text;html=1;strokeColor=none;fillColor=none;align=left;verticalAlign=middle;rounded=0;fontSize=10;fontStyle=0;container=0;spacingRight=2;spacingLeft=2;" vertex="1" parent="mil9Uycq5B6bb0wzV9q--13">
          <mxGeometry y="40" width="60" height="20" as="geometry" />
        </mxCell>
        <mxCell id="mil9Uycq5B6bb0wzV9q--17" value="Power" style="text;html=1;strokeColor=none;fillColor=none;align=left;verticalAlign=middle;rounded=0;fontSize=10;fontStyle=0;container=0;spacingRight=2;spacingLeft=2;" vertex="1" parent="mil9Uycq5B6bb0wzV9q--13">
          <mxGeometry y="60" width="60" height="20" as="geometry" />
        </mxCell>
        <object label="" type="cable" id="mil9Uycq5B6bb0wzV9q--19">
          <mxCell style="endArrow=oval;html=1;labelBackgroundColor=none;startArrow=oval;startFill=1;endFill=1;spacingLeft=2;spacingRight=2;edgeStyle=orthogonalEdgeStyle;rounded=1;fontSize=11;fontColor=#000000;strokeColor=#000000;entryX=0;entryY=0.5;entryDx=0;entryDy=0;exitX=0;exitY=0.5;exitDx=0;exitDy=0;" edge="1" parent="GQoI2PiIDdOTHmRrfyBq-2" source="mil9Uycq5B6bb0wzV9q--15" target="mil9Uycq5B6bb0wzV9q--5">
            <mxGeometry relative="1" as="geometry">
              <mxPoint x="1030" y="530" as="sourcePoint" />
              <mxPoint x="1190" y="530" as="targetPoint" />
              <Array as="points">
                <mxPoint x="1260" y="560" />
                <mxPoint x="1260" y="490" />
              </Array>
            </mxGeometry>
          </mxCell>
        </object>
        <mxCell id="mil9Uycq5B6bb0wzV9q--20" value="Source" style="edgeLabel;resizable=0;html=1;align=right;verticalAlign=bottom;spacingLeft=2;spacingRight=2;labelBackgroundColor=none;fontSize=11;fontColor=#000000;" connectable="0" vertex="1" parent="mil9Uycq5B6bb0wzV9q--19">
          <mxGeometry x="-1" relative="1" as="geometry" />
        </mxCell>
        <mxCell id="mil9Uycq5B6bb0wzV9q--21" value="Target" style="edgeLabel;resizable=0;html=1;align=right;verticalAlign=bottom;spacingLeft=2;spacingRight=2;labelBackgroundColor=none;fontSize=11;fontColor=#000000;" connectable="0" vertex="1" parent="mil9Uycq5B6bb0wzV9q--19">
          <mxGeometry x="1" relative="1" as="geometry" />
        </mxCell>
      </root>
    </mxGraphModel>
  </diagram>
  <diagram name="Sheet-2" id="1F93s3Kmvi0DofKxAEJj">
    <mxGraphModel dx="1605" dy="1012" grid="1" gridSize="10" guides="1" tooltips="1" connect="1" arrows="1" fold="1" page="1" pageScale="1" pageWidth="1654" pageHeight="1169" math="0" shadow="0">
      <root>
        <mxCell id="PGMr5E8aGnvixo0DGmH3-0" />
        <mxCell id="PGMr5E8aGnvixo0DGmH3-1" value="Frame" style="locked=1;" parent="PGMr5E8aGnvixo0DGmH3-0" />
        <mxCell id="AYI2NCKizta1ZedRe2vB-0" value="" style="rounded=0;whiteSpace=wrap;html=1;fillColor=none;" parent="PGMr5E8aGnvixo0DGmH3-1" vertex="1">
          <mxGeometry x="35" y="30" width="1603" height="1119" as="geometry" />
        </mxCell>
        <mxCell id="AYI2NCKizta1ZedRe2vB-1" value="" style="rounded=0;whiteSpace=wrap;html=1;fontFamily=AkkuratStd;fontSize=10;fontColor=#080808;align=right;fillColor=none;" parent="PGMr5E8aGnvixo0DGmH3-1" vertex="1">
          <mxGeometry x="766" y="1089.5" width="180" height="20" as="geometry" />
        </mxCell>
        <mxCell id="AYI2NCKizta1ZedRe2vB-2" value="" style="rounded=0;whiteSpace=wrap;html=1;fontFamily=AkkuratStd;fontSize=10;fontColor=#080808;align=right;fillColor=none;" parent="PGMr5E8aGnvixo0DGmH3-1" vertex="1">
          <mxGeometry x="766" y="1109.5" width="180" height="20" as="geometry" />
        </mxCell>
        <mxCell id="AYI2NCKizta1ZedRe2vB-3" value="" style="rounded=0;whiteSpace=wrap;html=1;fillColor=#080808;" parent="PGMr5E8aGnvixo0DGmH3-1" vertex="1">
          <mxGeometry x="36" y="1024" width="1602" height="15" as="geometry" />
        </mxCell>
        <mxCell id="AYI2NCKizta1ZedRe2vB-4" value="CLIENT" style="text;html=1;strokeColor=none;fillColor=none;align=left;verticalAlign=middle;whiteSpace=wrap;rounded=0;fontColor=#FFFFFF;fontFamily=AkkuratStd;fontSize=10;" parent="PGMr5E8aGnvixo0DGmH3-1" vertex="1">
          <mxGeometry x="36" y="1024" width="98" height="15" as="geometry" />
        </mxCell>
        <mxCell id="AYI2NCKizta1ZedRe2vB-5" value="" style="rounded=0;whiteSpace=wrap;html=1;fillColor=#080808;" parent="PGMr5E8aGnvixo0DGmH3-1" vertex="1">
          <mxGeometry x="36" y="1081.5" width="160" height="15" as="geometry" />
        </mxCell>
        <mxCell id="AYI2NCKizta1ZedRe2vB-6" value="" style="endArrow=none;html=1;fontSize=10;fontColor=#FFFFFF;" parent="PGMr5E8aGnvixo0DGmH3-1" edge="1">
          <mxGeometry width="50" height="50" relative="1" as="geometry">
            <mxPoint x="197" y="1149.5" as="sourcePoint" />
            <mxPoint x="197" y="1031.5" as="targetPoint" />
          </mxGeometry>
        </mxCell>
        <mxCell id="AYI2NCKizta1ZedRe2vB-7" value="-" style="text;html=1;strokeColor=none;fillColor=none;align=left;verticalAlign=top;whiteSpace=wrap;rounded=0;fontSize=10;fontColor=#080808;fontFamily=AkkuratStd;spacingTop=-5;spacing=4;" parent="PGMr5E8aGnvixo0DGmH3-1" vertex="1">
          <mxGeometry x="36" y="1039" width="160" height="42.5" as="geometry" />
        </mxCell>
        <mxCell id="AYI2NCKizta1ZedRe2vB-8" value="-" style="text;html=1;strokeColor=none;fillColor=none;align=left;verticalAlign=top;whiteSpace=wrap;rounded=0;fontSize=10;fontColor=#080808;fontFamily=AkkuratStd;spacingTop=-5;spacing=4;" parent="PGMr5E8aGnvixo0DGmH3-1" vertex="1">
          <mxGeometry x="36" y="1096.5" width="160" height="42.5" as="geometry" />
        </mxCell>
        <mxCell id="AYI2NCKizta1ZedRe2vB-9" value="" style="endArrow=none;html=1;fontSize=10;fontColor=#FFFFFF;" parent="PGMr5E8aGnvixo0DGmH3-1" edge="1">
          <mxGeometry width="50" height="50" relative="1" as="geometry">
            <mxPoint x="415.99999999999955" y="1149" as="sourcePoint" />
            <mxPoint x="415.99999999999955" y="1030.5" as="targetPoint" />
          </mxGeometry>
        </mxCell>
        <mxCell id="AYI2NCKizta1ZedRe2vB-10" value="AUTHOR" style="text;html=1;strokeColor=none;fillColor=none;align=left;verticalAlign=middle;whiteSpace=wrap;rounded=0;fontColor=#FFFFFF;fontFamily=AkkuratStd;fontSize=10;" parent="PGMr5E8aGnvixo0DGmH3-1" vertex="1">
          <mxGeometry x="416" y="1024" width="98" height="15" as="geometry" />
        </mxCell>
        <mxCell id="AYI2NCKizta1ZedRe2vB-11" value="" style="endArrow=none;html=1;fontSize=10;fontColor=#FFFFFF;" parent="PGMr5E8aGnvixo0DGmH3-1" edge="1">
          <mxGeometry width="50" height="50" relative="1" as="geometry">
            <mxPoint x="766.0000000000005" y="1149" as="sourcePoint" />
            <mxPoint x="766.0000000000005" y="1031" as="targetPoint" />
          </mxGeometry>
        </mxCell>
        <mxCell id="AYI2NCKizta1ZedRe2vB-12" value="" style="group" parent="PGMr5E8aGnvixo0DGmH3-1" vertex="1" connectable="0">
          <mxGeometry x="766" y="1031.5" width="360" height="22.5" as="geometry" />
        </mxCell>
        <mxCell id="AYI2NCKizta1ZedRe2vB-13" value="" style="rounded=0;whiteSpace=wrap;html=1;fillColor=#080808;" parent="AYI2NCKizta1ZedRe2vB-12" vertex="1">
          <mxGeometry width="359.99999999999994" height="21.09375" as="geometry" />
        </mxCell>
        <mxCell id="AYI2NCKizta1ZedRe2vB-14" value="Example" style="text;html=1;strokeColor=none;fillColor=none;align=left;verticalAlign=middle;whiteSpace=wrap;rounded=0;fontColor=#FFFFFF;fontFamily=AkkuratStd;fontSize=13;spacingLeft=3;" parent="AYI2NCKizta1ZedRe2vB-12" vertex="1">
          <mxGeometry width="360" height="22.5" as="geometry" />
        </mxCell>
        <mxCell id="AYI2NCKizta1ZedRe2vB-15" value="&lt;div&gt;&lt;span style=&quot;font-size: 12px&quot;&gt;&lt;b&gt;Sheet 2&lt;/b&gt;&lt;/span&gt;&lt;/div&gt;  " style="text;strokeColor=none;fillColor=none;align=left;verticalAlign=top;rounded=0;fontSize=10;fontColor=#080808;fontFamily=AkkuratStd;spacingTop=-5;spacing=4;whiteSpace=wrap;html=1;" parent="PGMr5E8aGnvixo0DGmH3-1" vertex="1">
          <mxGeometry x="766" y="1053" width="360" height="37.5" as="geometry" />
        </mxCell>
        <mxCell id="AYI2NCKizta1ZedRe2vB-16" value="" style="endArrow=none;html=1;fontSize=10;fontColor=#FFFFFF;" parent="PGMr5E8aGnvixo0DGmH3-1" edge="1">
          <mxGeometry width="50" height="50" relative="1" as="geometry">
            <mxPoint x="1125.9999999999995" y="1149.5" as="sourcePoint" />
            <mxPoint x="1125.9999999999995" y="1031.5" as="targetPoint" />
          </mxGeometry>
        </mxCell>
        <mxCell id="AYI2NCKizta1ZedRe2vB-17" value="&lt;div&gt;&lt;font style=&quot;font-size: 10px&quot;&gt;Status:&lt;/font&gt;&lt;/div&gt;  " style="text;strokeColor=none;fillColor=none;align=left;verticalAlign=top;rounded=0;fontSize=10;fontColor=#080808;fontFamily=AkkuratStd;spacingTop=-5;spacing=4;whiteSpace=wrap;html=1;connectable=0;" parent="PGMr5E8aGnvixo0DGmH3-1" vertex="1">
          <mxGeometry x="766" y="1089.5" width="60" height="20" as="geometry" />
        </mxCell>
        <mxCell id="AYI2NCKizta1ZedRe2vB-18" value="&lt;div&gt;&lt;font style=&quot;font-size: 10px&quot;&gt;Date:&lt;/font&gt;&lt;/div&gt;  " style="text;strokeColor=none;fillColor=none;align=left;verticalAlign=top;rounded=0;fontSize=10;fontColor=#080808;fontFamily=AkkuratStd;spacingTop=-5;spacing=4;whiteSpace=wrap;html=1;connectable=0;" parent="PGMr5E8aGnvixo0DGmH3-1" vertex="1">
          <mxGeometry x="766" y="1109.5" width="60" height="20" as="geometry" />
        </mxCell>
        <mxCell id="AYI2NCKizta1ZedRe2vB-19" value="John Doe" style="rounded=0;whiteSpace=wrap;html=1;fontFamily=AkkuratStd;fontSize=10;fontColor=#080808;align=right;fillColor=none;connectable=0;" parent="PGMr5E8aGnvixo0DGmH3-1" vertex="1">
          <mxGeometry x="946" y="1089.5" width="180" height="20" as="geometry" />
        </mxCell>
        <mxCell id="AYI2NCKizta1ZedRe2vB-20" value="1" style="rounded=0;whiteSpace=wrap;html=1;fontFamily=AkkuratStd;fontSize=10;fontColor=#080808;align=right;fillColor=none;connectable=0;" parent="PGMr5E8aGnvixo0DGmH3-1" vertex="1">
          <mxGeometry x="946" y="1109.5" width="180" height="20" as="geometry" />
        </mxCell>
        <mxCell id="AYI2NCKizta1ZedRe2vB-21" value="&lt;font style=&quot;font-size: 6px&quot;&gt;example.drawio&lt;/font&gt;" style="rounded=0;whiteSpace=wrap;html=1;fontFamily=AkkuratStd;fontSize=10;fontColor=#080808;align=right;fillColor=none;connectable=0;" parent="PGMr5E8aGnvixo0DGmH3-1" vertex="1">
          <mxGeometry x="946" y="1129.5" width="180" height="19.5" as="geometry" />
        </mxCell>
        <mxCell id="AYI2NCKizta1ZedRe2vB-22" value="&lt;div&gt;&lt;font style=&quot;font-size: 10px&quot;&gt;Verfasser:&lt;/font&gt;&lt;/div&gt;  " style="text;strokeColor=none;fillColor=none;align=left;verticalAlign=top;rounded=0;fontSize=10;fontColor=#080808;fontFamily=AkkuratStd;spacingTop=-5;spacing=4;whiteSpace=wrap;html=1;connectable=0;" parent="PGMr5E8aGnvixo0DGmH3-1" vertex="1">
          <mxGeometry x="946" y="1089.5" width="60" height="20" as="geometry" />
        </mxCell>
        <mxCell id="AYI2NCKizta1ZedRe2vB-23" value="&lt;div&gt;&lt;font style=&quot;font-size: 10px&quot;&gt;Plannummer:&lt;/font&gt;&lt;/div&gt;  " style="text;strokeColor=none;fillColor=none;align=left;verticalAlign=top;rounded=0;fontSize=10;fontColor=#080808;fontFamily=AkkuratStd;spacingTop=-5;spacing=4;whiteSpace=wrap;html=1;connectable=0;" parent="PGMr5E8aGnvixo0DGmH3-1" vertex="1">
          <mxGeometry x="946" y="1109.5" width="60" height="20" as="geometry" />
        </mxCell>
        <mxCell id="AYI2NCKizta1ZedRe2vB-24" value="&lt;div&gt;&lt;font style=&quot;font-size: 10px&quot;&gt;Filename:&lt;/font&gt;&lt;/div&gt;  " style="text;strokeColor=none;fillColor=none;align=left;verticalAlign=top;rounded=0;fontSize=10;fontColor=#080808;fontFamily=AkkuratStd;spacingTop=-5;spacing=4;whiteSpace=wrap;html=1;connectable=0;" parent="PGMr5E8aGnvixo0DGmH3-1" vertex="1">
          <mxGeometry x="946" y="1129.5" width="60" height="20" as="geometry" />
        </mxCell>
        <mxCell id="AYI2NCKizta1ZedRe2vB-25" value="NOTES" style="text;html=1;strokeColor=none;fillColor=none;align=left;verticalAlign=middle;whiteSpace=wrap;rounded=0;fontColor=#FFFFFF;fontFamily=AkkuratStd;fontSize=10;" parent="PGMr5E8aGnvixo0DGmH3-1" vertex="1">
          <mxGeometry x="1126" y="1024" width="98" height="15" as="geometry" />
        </mxCell>
        <mxCell id="AYI2NCKizta1ZedRe2vB-26" value="&lt;div&gt;&lt;font style=&quot;font-size: 10px&quot;&gt;1&lt;/font&gt;&lt;/div&gt;  " style="text;strokeColor=none;fillColor=none;align=right;verticalAlign=top;rounded=0;fontSize=10;fontColor=#080808;fontFamily=AkkuratStd;spacingTop=-5;spacing=4;whiteSpace=wrap;html=1;connectable=0;" parent="PGMr5E8aGnvixo0DGmH3-1" vertex="1">
          <mxGeometry x="820" y="1089.5" width="126" height="20" as="geometry" />
        </mxCell>
        <mxCell id="AYI2NCKizta1ZedRe2vB-27" value="&lt;div&gt;dd.mm.yyyy&lt;/div&gt;  " style="text;strokeColor=none;fillColor=none;align=right;verticalAlign=top;rounded=0;fontSize=10;fontColor=#080808;fontFamily=AkkuratStd;spacingTop=-5;spacing=4;whiteSpace=wrap;html=1;connectable=0;" parent="PGMr5E8aGnvixo0DGmH3-1" vertex="1">
          <mxGeometry x="820" y="1109.5" width="126" height="20" as="geometry" />
        </mxCell>
        <mxCell id="PGMr5E8aGnvixo0DGmH3-3" value="Drawing" parent="PGMr5E8aGnvixo0DGmH3-0" />
        <object label="Device 1&lt;br&gt;&lt;span style=&quot;font-size: 6px&quot;&gt;iupo, evcbn&lt;/span&gt;" type="device" id="PGMr5E8aGnvixo0DGmH3-4">
          <mxCell style="rounded=0;whiteSpace=wrap;html=1;align=center;verticalAlign=top;fontStyle=1;container=1;fillColor=#f5f5f5;strokeColor=#666666;fontColor=#333333;connectable=0;collapsible=0;dropTarget=1;metaEdit=0;recursiveResize=0;resizable=1;resizeHeight=0;allowArrows=0;noLabel=0;labelPadding=0;perimeter=rectanglePerimeter;" parent="PGMr5E8aGnvixo0DGmH3-3" vertex="1">
            <mxGeometry x="1320" y="360" width="120" height="100" as="geometry">
              <mxRectangle width="90" height="40" as="alternateBounds" />
            </mxGeometry>
          </mxCell>
        </object>
        <mxCell id="PGMr5E8aGnvixo0DGmH3-5" value="Output 1" style="text;html=1;strokeColor=none;fillColor=none;align=right;verticalAlign=middle;rounded=0;fontSize=10;spacingLeft=2;spacingRight=2;fontStyle=0;container=0;resizeHeight=1;" parent="PGMr5E8aGnvixo0DGmH3-4" vertex="1">
          <mxGeometry x="60" y="40" width="60" height="20" as="geometry" />
        </mxCell>
        <mxCell id="PGMr5E8aGnvixo0DGmH3-6" value="Input 1" style="text;html=1;strokeColor=none;fillColor=none;align=left;verticalAlign=middle;rounded=0;fontSize=10;fontStyle=0;container=0;spacingRight=2;spacingLeft=2;" parent="PGMr5E8aGnvixo0DGmH3-4" vertex="1">
          <mxGeometry y="40" width="60" height="20" as="geometry" />
        </mxCell>
        <mxCell id="PGMr5E8aGnvixo0DGmH3-7" value="Input 2" style="text;html=1;strokeColor=none;fillColor=none;align=left;verticalAlign=middle;rounded=0;fontSize=10;fontStyle=0;container=0;spacingRight=2;spacingLeft=2;" parent="PGMr5E8aGnvixo0DGmH3-4" vertex="1">
          <mxGeometry y="60" width="60" height="20" as="geometry" />
        </mxCell>
        <mxCell id="PGMr5E8aGnvixo0DGmH3-8" value="Power" style="text;html=1;strokeColor=none;fillColor=none;align=left;verticalAlign=middle;rounded=0;fontSize=10;fontStyle=0;container=0;spacingRight=2;spacingLeft=2;" parent="PGMr5E8aGnvixo0DGmH3-4" vertex="1">
          <mxGeometry y="80" width="60" height="20" as="geometry" />
        </mxCell>
        <mxCell id="PGMr5E8aGnvixo0DGmH3-9" value="Output 2" style="text;html=1;strokeColor=none;fillColor=none;align=right;verticalAlign=middle;rounded=0;fontSize=10;spacingLeft=2;spacingRight=2;fontStyle=0;container=0;" parent="PGMr5E8aGnvixo0DGmH3-4" vertex="1">
          <mxGeometry x="60" y="60" width="60" height="20" as="geometry" />
        </mxCell>
        <mxCell id="PGMr5E8aGnvixo0DGmH3-10" value="" style="group" parent="PGMr5E8aGnvixo0DGmH3-3" vertex="1" connectable="0">
          <mxGeometry x="990" y="300" width="120" height="111" as="geometry" />
        </mxCell>
        <mxCell id="PGMr5E8aGnvixo0DGmH3-11" value="" style="endArrow=none;dashed=1;html=1;strokeWidth=2;fontSize=10;fontColor=#FFFFFF;exitX=0.5;exitY=0;exitDx=0;exitDy=0;dashPattern=1 1;entryX=0.5;entryY=1;entryDx=0;entryDy=0;spacingLeft=4;spacingRight=4;fontStyle=0;rounded=0;" parent="PGMr5E8aGnvixo0DGmH3-10" source="PGMr5E8aGnvixo0DGmH3-14" target="PGMr5E8aGnvixo0DGmH3-16" edge="1">
          <mxGeometry y="-9" width="50" height="50" as="geometry">
            <mxPoint x="30" y="131" as="sourcePoint" />
            <mxPoint x="30" y="61" as="targetPoint" />
          </mxGeometry>
        </mxCell>
        <mxCell id="PGMr5E8aGnvixo0DGmH3-12" value="" style="shape=tape;whiteSpace=wrap;html=1;labelBackgroundColor=#ffffff;fillColor=#f5f5f5;fontSize=10;align=right;labelBorderColor=none;size=0.2;strokeColor=#666666;fontColor=#333333;spacingLeft=4;spacingRight=4;fontStyle=0;container=0;" parent="PGMr5E8aGnvixo0DGmH3-10" vertex="1">
          <mxGeometry y="51" width="120" height="40" as="geometry" />
        </mxCell>
        <mxCell id="PGMr5E8aGnvixo0DGmH3-13" value="" style="shape=tape;whiteSpace=wrap;html=1;labelBackgroundColor=#ffffff;fillColor=#f5f5f5;fontSize=10;align=right;labelBorderColor=none;size=0.2;strokeColor=#666666;fontColor=#333333;spacingLeft=4;spacingRight=4;fontStyle=0;container=0;" parent="PGMr5E8aGnvixo0DGmH3-10" vertex="1">
          <mxGeometry y="71" width="120" height="40" as="geometry" />
        </mxCell>
        <mxCell id="PGMr5E8aGnvixo0DGmH3-14" value="" style="rounded=0;whiteSpace=wrap;html=1;align=center;verticalAlign=top;fontStyle=1;container=0;fillColor=#f5f5f5;strokeColor=#666666;fontColor=#333333;spacingLeft=4;spacingRight=4;" parent="PGMr5E8aGnvixo0DGmH3-10" vertex="1">
          <mxGeometry y="61" width="120" height="40" as="geometry" />
        </mxCell>
        <mxCell id="PGMr5E8aGnvixo0DGmH3-15" value="" style="shape=tape;whiteSpace=wrap;html=1;labelBackgroundColor=#ffffff;fillColor=#f5f5f5;fontSize=10;align=right;labelBorderColor=none;size=0.2;strokeColor=#666666;fontColor=#333333;spacingLeft=4;spacingRight=4;fontStyle=0;container=0;" parent="PGMr5E8aGnvixo0DGmH3-10" vertex="1">
          <mxGeometry y="1" width="120" height="50" as="geometry" />
        </mxCell>
        <mxCell id="PGMr5E8aGnvixo0DGmH3-16" value="Device 2&lt;br&gt;&lt;font style=&quot;font-size: 6px&quot;&gt;qwe, up&lt;/font&gt;" style="rounded=0;whiteSpace=wrap;html=1;align=center;verticalAlign=top;fontStyle=1;container=0;fillColor=#f5f5f5;strokeColor=#666666;fontColor=#333333;spacingLeft=4;spacingRight=4;" parent="PGMr5E8aGnvixo0DGmH3-10" vertex="1">
          <mxGeometry width="120" height="40" as="geometry" />
        </mxCell>
        <mxCell id="PGMr5E8aGnvixo0DGmH3-17" value="Output 01" style="text;html=1;strokeColor=none;fillColor=none;align=right;verticalAlign=middle;rounded=0;fontSize=10;spacingLeft=4;spacingRight=4;fontStyle=0;container=0;" parent="PGMr5E8aGnvixo0DGmH3-10" vertex="1">
          <mxGeometry x="60" y="61" width="60" height="20" as="geometry" />
        </mxCell>
        <mxCell id="PGMr5E8aGnvixo0DGmH3-18" value="Output 02" style="text;html=1;strokeColor=none;fillColor=none;align=right;verticalAlign=middle;rounded=0;fontSize=10;spacingLeft=4;spacingRight=4;fontStyle=0;container=0;" parent="PGMr5E8aGnvixo0DGmH3-10" vertex="1">
          <mxGeometry x="60" y="81" width="60" height="20" as="geometry" />
        </mxCell>
        <mxCell id="PGMr5E8aGnvixo0DGmH3-19" value="" style="endArrow=none;html=1;fontSize=10;exitX=0;exitY=1;exitDx=0;exitDy=0;entryX=1;entryY=1;entryDx=0;entryDy=0;fontColor=#FFFFFF;rounded=0;strokeWidth=2;targetPerimeterSpacing=0;sourcePerimeterSpacing=0;strokeColor=#F5F5F5;spacingLeft=4;spacingRight=4;fontStyle=0" parent="PGMr5E8aGnvixo0DGmH3-10" source="PGMr5E8aGnvixo0DGmH3-16" target="PGMr5E8aGnvixo0DGmH3-16" edge="1">
          <mxGeometry y="-9" width="50" height="50" as="geometry">
            <mxPoint x="60" y="181" as="sourcePoint" />
            <mxPoint x="110" y="131" as="targetPoint" />
          </mxGeometry>
        </mxCell>
        <mxCell id="PGMr5E8aGnvixo0DGmH3-20" value="" style="endArrow=none;html=1;fontSize=10;exitX=0;exitY=0;exitDx=0;exitDy=0;entryX=1;entryY=0;entryDx=0;entryDy=0;fontColor=#FFFFFF;rounded=0;strokeWidth=2;targetPerimeterSpacing=0;sourcePerimeterSpacing=0;strokeColor=#F5F5F5;spacingLeft=4;spacingRight=4;fontStyle=0" parent="PGMr5E8aGnvixo0DGmH3-10" source="PGMr5E8aGnvixo0DGmH3-14" target="PGMr5E8aGnvixo0DGmH3-14" edge="1">
          <mxGeometry y="-9.329999999999927" width="50" height="50" as="geometry">
            <mxPoint y="60.66999999999996" as="sourcePoint" />
            <mxPoint x="120" y="60.66999999999996" as="targetPoint" />
          </mxGeometry>
        </mxCell>
        <mxCell id="PGMr5E8aGnvixo0DGmH3-21" value="" style="endArrow=none;html=1;fontSize=10;exitX=0;exitY=1;exitDx=0;exitDy=0;entryX=1;entryY=1;entryDx=0;entryDy=0;fontColor=#FFFFFF;rounded=0;strokeWidth=2;targetPerimeterSpacing=0;sourcePerimeterSpacing=0;strokeColor=#F5F5F5;spacingLeft=4;spacingRight=4;fontStyle=0" parent="PGMr5E8aGnvixo0DGmH3-10" source="PGMr5E8aGnvixo0DGmH3-14" target="PGMr5E8aGnvixo0DGmH3-14" edge="1">
          <mxGeometry x="10" y="0.6700000000000728" width="50" height="50" as="geometry">
            <mxPoint x="10" y="71" as="sourcePoint" />
            <mxPoint x="130" y="71" as="targetPoint" />
          </mxGeometry>
        </mxCell>
        <mxCell id="PGMr5E8aGnvixo0DGmH3-22" value="Input 1" style="text;html=1;strokeColor=none;fillColor=none;align=left;verticalAlign=middle;rounded=0;fontSize=10;fontStyle=0;container=0;spacingRight=2;spacingLeft=2;" parent="PGMr5E8aGnvixo0DGmH3-10" vertex="1">
          <mxGeometry y="61" width="60" height="20" as="geometry" />
        </mxCell>
        <mxCell id="PGMr5E8aGnvixo0DGmH3-23" value="Input 2" style="text;html=1;strokeColor=none;fillColor=none;align=left;verticalAlign=middle;rounded=0;fontSize=10;fontStyle=0;container=0;spacingRight=2;spacingLeft=2;" parent="PGMr5E8aGnvixo0DGmH3-10" vertex="1">
          <mxGeometry y="81" width="60" height="20" as="geometry" />
        </mxCell>
        <mxCell id="PGMr5E8aGnvixo0DGmH3-24" value="" style="group;spacingLeft=4;spacingRight=4;" parent="PGMr5E8aGnvixo0DGmH3-3" vertex="1" connectable="0">
          <mxGeometry x="450" y="340" width="200" height="60" as="geometry" />
        </mxCell>
        <mxCell id="PGMr5E8aGnvixo0DGmH3-25" value="" style="group;spacingLeft=4;spacingRight=4;" parent="PGMr5E8aGnvixo0DGmH3-24" vertex="1" connectable="0">
          <mxGeometry width="200" height="60" as="geometry" />
        </mxCell>
        <mxCell id="PGMr5E8aGnvixo0DGmH3-26" value="" style="endArrow=none;dashed=1;html=1;strokeWidth=2;fontSize=10;fontColor=#FFFFFF;entryX=1;entryY=0.5;entryDx=0;entryDy=0;dashPattern=1 1;exitX=0;exitY=0.5;exitDx=0;exitDy=0;spacingLeft=4;spacingRight=4;rounded=0;" parent="PGMr5E8aGnvixo0DGmH3-25" source="PGMr5E8aGnvixo0DGmH3-32" target="PGMr5E8aGnvixo0DGmH3-29" edge="1">
          <mxGeometry x="60" y="-160" width="50" height="50" as="geometry">
            <mxPoint x="80" y="19" as="sourcePoint" />
            <mxPoint x="119.03999999999996" y="-104.85000000000002" as="targetPoint" />
          </mxGeometry>
        </mxCell>
        <mxCell id="PGMr5E8aGnvixo0DGmH3-27" value="Port 1" style="text;html=1;strokeColor=none;fillColor=none;align=right;verticalAlign=middle;rounded=0;fontSize=10;spacingLeft=4;spacingRight=4;fontStyle=0;container=0;" parent="PGMr5E8aGnvixo0DGmH3-25" vertex="1">
          <mxGeometry x="140" y="20" width="60" height="20" as="geometry" />
        </mxCell>
        <mxCell id="PGMr5E8aGnvixo0DGmH3-28" value="" style="shape=tape;whiteSpace=wrap;html=1;labelBackgroundColor=#ffffff;fillColor=#f5f5f5;fontSize=10;align=right;labelBorderColor=none;size=0.2;strokeColor=#666666;fontColor=#333333;rotation=90;spacingLeft=4;spacingRight=4;" parent="PGMr5E8aGnvixo0DGmH3-25" vertex="1">
          <mxGeometry x="20" y="20" width="60" height="20" as="geometry" />
        </mxCell>
        <mxCell id="PGMr5E8aGnvixo0DGmH3-29" value="ELCB 12fd" style="rounded=0;whiteSpace=wrap;html=1;align=center;verticalAlign=middle;fontStyle=1;container=0;fillColor=#f5f5f5;strokeColor=#666666;fontColor=#333333;spacingLeft=4;spacingRight=4;" parent="PGMr5E8aGnvixo0DGmH3-25" vertex="1">
          <mxGeometry width="50" height="60" as="geometry" />
        </mxCell>
        <mxCell id="PGMr5E8aGnvixo0DGmH3-30" value="" style="endArrow=none;html=1;fontSize=10;exitX=1;exitY=0;exitDx=0;exitDy=0;entryX=1;entryY=1;entryDx=0;entryDy=0;fontColor=#FFFFFF;rounded=0;strokeWidth=2;targetPerimeterSpacing=0;sourcePerimeterSpacing=0;strokeColor=#F5F5F5;spacingLeft=4;spacingRight=4;" parent="PGMr5E8aGnvixo0DGmH3-25" source="PGMr5E8aGnvixo0DGmH3-29" target="PGMr5E8aGnvixo0DGmH3-29" edge="1">
          <mxGeometry x="70" y="-150.32999999999993" width="50" height="50" as="geometry">
            <mxPoint x="90" y="10" as="sourcePoint" />
            <mxPoint x="90" y="50" as="targetPoint" />
          </mxGeometry>
        </mxCell>
        <mxCell id="PGMr5E8aGnvixo0DGmH3-31" value="" style="shape=tape;whiteSpace=wrap;html=1;labelBackgroundColor=#ffffff;fillColor=#f5f5f5;fontSize=10;align=right;labelBorderColor=none;size=0.2;strokeColor=#666666;fontColor=#333333;rotation=90;spacingLeft=4;spacingRight=4;" parent="PGMr5E8aGnvixo0DGmH3-25" vertex="1">
          <mxGeometry x="50" y="20" width="60" height="20" as="geometry" />
        </mxCell>
        <mxCell id="PGMr5E8aGnvixo0DGmH3-32" value="Power Socket" style="rounded=0;whiteSpace=wrap;html=1;align=center;verticalAlign=top;fontStyle=1;container=0;fillColor=#f5f5f5;strokeColor=#666666;fontColor=#333333;spacingLeft=4;spacingRight=4;" parent="PGMr5E8aGnvixo0DGmH3-25" vertex="1">
          <mxGeometry x="80" width="120" height="60" as="geometry" />
        </mxCell>
        <mxCell id="PGMr5E8aGnvixo0DGmH3-33" value="" style="endArrow=none;html=1;fontSize=10;exitX=0;exitY=0;exitDx=0;exitDy=0;entryX=0;entryY=1;entryDx=0;entryDy=0;fontColor=#FFFFFF;rounded=0;strokeWidth=2;targetPerimeterSpacing=0;sourcePerimeterSpacing=0;strokeColor=#F5F5F5;spacingLeft=4;spacingRight=4;" parent="PGMr5E8aGnvixo0DGmH3-25" source="PGMr5E8aGnvixo0DGmH3-32" target="PGMr5E8aGnvixo0DGmH3-32" edge="1">
          <mxGeometry x="60" y="-160.32999999999993" width="50" height="50" as="geometry">
            <mxPoint x="50" y="-20" as="sourcePoint" />
            <mxPoint x="170" y="-20" as="targetPoint" />
          </mxGeometry>
        </mxCell>
        <mxCell id="PGMr5E8aGnvixo0DGmH3-34" value="Port 1" style="text;html=1;strokeColor=none;fillColor=none;align=right;verticalAlign=middle;rounded=0;fontSize=10;spacingLeft=4;spacingRight=4;fontStyle=0;container=0;" parent="PGMr5E8aGnvixo0DGmH3-25" vertex="1">
          <mxGeometry x="140" y="20" width="60" height="20" as="geometry" />
        </mxCell>
        <mxCell id="PGMr5E8aGnvixo0DGmH3-35" value="Port 2" style="text;html=1;strokeColor=none;fillColor=none;align=right;verticalAlign=middle;rounded=0;fontSize=10;spacingLeft=4;spacingRight=4;fontStyle=0;container=0;" parent="PGMr5E8aGnvixo0DGmH3-25" vertex="1">
          <mxGeometry x="140" y="40" width="60" height="20" as="geometry" />
        </mxCell>
        <object label="" type="cable" id="gkzgCEsaoz0wtbACPyrD-0">
          <mxCell style="endArrow=oval;html=1;labelBackgroundColor=none;startArrow=oval;startFill=1;endFill=1;spacingLeft=2;spacingRight=2;edgeStyle=orthogonalEdgeStyle;rounded=1;fontSize=11;fontColor=#000000;strokeColor=#000000;exitX=1;exitY=0.5;exitDx=0;exitDy=0;entryX=0;entryY=0.5;entryDx=0;entryDy=0;" parent="PGMr5E8aGnvixo0DGmH3-3" source="PGMr5E8aGnvixo0DGmH3-34" target="PGMr5E8aGnvixo0DGmH3-23" edge="1">
            <mxGeometry relative="1" as="geometry">
              <mxPoint x="750" y="620" as="sourcePoint" />
              <mxPoint x="910" y="620" as="targetPoint" />
            </mxGeometry>
          </mxCell>
        </object>
        <mxCell id="gkzgCEsaoz0wtbACPyrD-1" value="Source" style="edgeLabel;resizable=0;html=1;align=left;verticalAlign=bottom;spacingLeft=2;spacingRight=2;labelBackgroundColor=none;fontSize=11;fontColor=#000000;" parent="gkzgCEsaoz0wtbACPyrD-0" connectable="0" vertex="1">
          <mxGeometry x="-1" relative="1" as="geometry" />
        </mxCell>
        <mxCell id="gkzgCEsaoz0wtbACPyrD-2" value="Target" style="edgeLabel;resizable=0;html=1;align=right;verticalAlign=bottom;spacingLeft=2;spacingRight=2;labelBackgroundColor=none;fontSize=11;fontColor=#000000;" parent="gkzgCEsaoz0wtbACPyrD-0" connectable="0" vertex="1">
          <mxGeometry x="1" relative="1" as="geometry" />
        </mxCell>
        <object label="" type="cable" id="MaaiSVZT1KKcjvpyUn3L-0">
          <mxCell style="endArrow=oval;html=1;labelBackgroundColor=none;startArrow=oval;startFill=1;endFill=1;spacingLeft=2;spacingRight=2;edgeStyle=orthogonalEdgeStyle;rounded=1;fontSize=11;fontColor=#000000;strokeColor=#000000;exitX=1;exitY=0.5;exitDx=0;exitDy=0;entryX=0;entryY=0.5;entryDx=0;entryDy=0;" parent="PGMr5E8aGnvixo0DGmH3-3" source="PGMr5E8aGnvixo0DGmH3-17" target="PGMr5E8aGnvixo0DGmH3-6" edge="1">
            <mxGeometry relative="1" as="geometry">
              <mxPoint x="880" y="540" as="sourcePoint" />
              <mxPoint x="1040" y="540" as="targetPoint" />
            </mxGeometry>
          </mxCell>
        </object>
        <mxCell id="MaaiSVZT1KKcjvpyUn3L-1" value="Source" style="edgeLabel;resizable=0;html=1;align=left;verticalAlign=bottom;spacingLeft=2;spacingRight=2;labelBackgroundColor=none;fontSize=11;fontColor=#000000;" parent="MaaiSVZT1KKcjvpyUn3L-0" connectable="0" vertex="1">
          <mxGeometry x="-1" relative="1" as="geometry" />
        </mxCell>
        <mxCell id="MaaiSVZT1KKcjvpyUn3L-2" value="Target" style="edgeLabel;resizable=0;html=1;align=right;verticalAlign=bottom;spacingLeft=2;spacingRight=2;labelBackgroundColor=none;fontSize=11;fontColor=#000000;" parent="MaaiSVZT1KKcjvpyUn3L-0" connectable="0" vertex="1">
          <mxGeometry x="1" relative="1" as="geometry" />
        </mxCell>
        <object label="" type="cable" id="lIx9uRuIKvC8CBAY_aUA-1">
          <mxCell style="endArrow=oval;html=1;labelBackgroundColor=none;startArrow=oval;startFill=1;endFill=1;spacingLeft=2;spacingRight=2;edgeStyle=orthogonalEdgeStyle;rounded=1;fontSize=11;fontColor=#000000;strokeColor=#000000;exitX=1;exitY=0.5;exitDx=0;exitDy=0;entryX=0;entryY=0.5;entryDx=0;entryDy=0;" edge="1" parent="PGMr5E8aGnvixo0DGmH3-3" source="PGMr5E8aGnvixo0DGmH3-5" target="PGMr5E8aGnvixo0DGmH3-22">
            <mxGeometry relative="1" as="geometry">
              <mxPoint x="750" y="620" as="sourcePoint" />
              <mxPoint x="910" y="620" as="targetPoint" />
              <Array as="points">
                <mxPoint x="1490" y="410" />
                <mxPoint x="1490" y="220" />
                <mxPoint x="930" y="220" />
                <mxPoint x="930" y="371" />
              </Array>
            </mxGeometry>
          </mxCell>
        </object>
        <mxCell id="lIx9uRuIKvC8CBAY_aUA-2" value="Source" style="edgeLabel;resizable=0;html=1;align=left;verticalAlign=bottom;spacingLeft=2;spacingRight=2;labelBackgroundColor=none;fontSize=11;fontColor=#000000;" connectable="0" vertex="1" parent="lIx9uRuIKvC8CBAY_aUA-1">
          <mxGeometry x="-1" relative="1" as="geometry" />
        </mxCell>
        <mxCell id="lIx9uRuIKvC8CBAY_aUA-3" value="Target" style="edgeLabel;resizable=0;html=1;align=right;verticalAlign=bottom;spacingLeft=2;spacingRight=2;labelBackgroundColor=none;fontSize=11;fontColor=#000000;" connectable="0" vertex="1" parent="lIx9uRuIKvC8CBAY_aUA-1">
          <mxGeometry x="1" relative="1" as="geometry" />
        </mxCell>
      </root>
    </mxGraphModel>
  </diagram>
  <diagram name="Sheet-3" id="n71TvfZfAjyd1amQtRNC">
    <mxGraphModel dx="1926" dy="1214" grid="1" gridSize="10" guides="1" tooltips="1" connect="1" arrows="1" fold="1" page="1" pageScale="1" pageWidth="1654" pageHeight="1169" math="0" shadow="0">
      <root>
        <mxCell id="cwe3W4yZKbdpXorPZWT0-0" />
        <mxCell id="cwe3W4yZKbdpXorPZWT0-1" value="Frame" style="locked=1;" parent="cwe3W4yZKbdpXorPZWT0-0" />
        <mxCell id="cwe3W4yZKbdpXorPZWT0-2" value="" style="rounded=0;whiteSpace=wrap;html=1;fillColor=none;" parent="cwe3W4yZKbdpXorPZWT0-1" vertex="1">
          <mxGeometry x="35" y="30" width="1603" height="1119" as="geometry" />
        </mxCell>
        <mxCell id="cwe3W4yZKbdpXorPZWT0-3" value="" style="rounded=0;whiteSpace=wrap;html=1;fontFamily=AkkuratStd;fontSize=10;fontColor=#080808;align=right;fillColor=none;" parent="cwe3W4yZKbdpXorPZWT0-1" vertex="1">
          <mxGeometry x="766" y="1089.5" width="180" height="20" as="geometry" />
        </mxCell>
        <mxCell id="cwe3W4yZKbdpXorPZWT0-4" value="" style="rounded=0;whiteSpace=wrap;html=1;fontFamily=AkkuratStd;fontSize=10;fontColor=#080808;align=right;fillColor=none;" parent="cwe3W4yZKbdpXorPZWT0-1" vertex="1">
          <mxGeometry x="766" y="1109.5" width="180" height="20" as="geometry" />
        </mxCell>
        <mxCell id="cwe3W4yZKbdpXorPZWT0-5" value="" style="rounded=0;whiteSpace=wrap;html=1;fillColor=#080808;" parent="cwe3W4yZKbdpXorPZWT0-1" vertex="1">
          <mxGeometry x="36" y="1024" width="1602" height="15" as="geometry" />
        </mxCell>
        <mxCell id="cwe3W4yZKbdpXorPZWT0-6" value="CLIENT" style="text;html=1;strokeColor=none;fillColor=none;align=left;verticalAlign=middle;whiteSpace=wrap;rounded=0;fontColor=#FFFFFF;fontFamily=AkkuratStd;fontSize=10;" parent="cwe3W4yZKbdpXorPZWT0-1" vertex="1">
          <mxGeometry x="36" y="1024" width="98" height="15" as="geometry" />
        </mxCell>
        <mxCell id="cwe3W4yZKbdpXorPZWT0-7" value="" style="rounded=0;whiteSpace=wrap;html=1;fillColor=#080808;" parent="cwe3W4yZKbdpXorPZWT0-1" vertex="1">
          <mxGeometry x="36" y="1081.5" width="160" height="15" as="geometry" />
        </mxCell>
        <mxCell id="cwe3W4yZKbdpXorPZWT0-8" value="" style="endArrow=none;html=1;fontSize=10;fontColor=#FFFFFF;" parent="cwe3W4yZKbdpXorPZWT0-1" edge="1">
          <mxGeometry width="50" height="50" relative="1" as="geometry">
            <mxPoint x="197" y="1149.5" as="sourcePoint" />
            <mxPoint x="197" y="1031.5" as="targetPoint" />
          </mxGeometry>
        </mxCell>
        <mxCell id="cwe3W4yZKbdpXorPZWT0-9" value="-" style="text;html=1;strokeColor=none;fillColor=none;align=left;verticalAlign=top;whiteSpace=wrap;rounded=0;fontSize=10;fontColor=#080808;fontFamily=AkkuratStd;spacingTop=-5;spacing=4;" parent="cwe3W4yZKbdpXorPZWT0-1" vertex="1">
          <mxGeometry x="36" y="1039" width="160" height="42.5" as="geometry" />
        </mxCell>
        <mxCell id="cwe3W4yZKbdpXorPZWT0-10" value="-" style="text;html=1;strokeColor=none;fillColor=none;align=left;verticalAlign=top;whiteSpace=wrap;rounded=0;fontSize=10;fontColor=#080808;fontFamily=AkkuratStd;spacingTop=-5;spacing=4;" parent="cwe3W4yZKbdpXorPZWT0-1" vertex="1">
          <mxGeometry x="36" y="1096.5" width="160" height="42.5" as="geometry" />
        </mxCell>
        <mxCell id="cwe3W4yZKbdpXorPZWT0-11" value="" style="endArrow=none;html=1;fontSize=10;fontColor=#FFFFFF;" parent="cwe3W4yZKbdpXorPZWT0-1" edge="1">
          <mxGeometry width="50" height="50" relative="1" as="geometry">
            <mxPoint x="415.99999999999955" y="1149" as="sourcePoint" />
            <mxPoint x="415.99999999999955" y="1030.5" as="targetPoint" />
          </mxGeometry>
        </mxCell>
        <mxCell id="cwe3W4yZKbdpXorPZWT0-12" value="AUTHOR" style="text;html=1;strokeColor=none;fillColor=none;align=left;verticalAlign=middle;whiteSpace=wrap;rounded=0;fontColor=#FFFFFF;fontFamily=AkkuratStd;fontSize=10;" parent="cwe3W4yZKbdpXorPZWT0-1" vertex="1">
          <mxGeometry x="416" y="1024" width="98" height="15" as="geometry" />
        </mxCell>
        <mxCell id="cwe3W4yZKbdpXorPZWT0-13" value="" style="endArrow=none;html=1;fontSize=10;fontColor=#FFFFFF;" parent="cwe3W4yZKbdpXorPZWT0-1" edge="1">
          <mxGeometry width="50" height="50" relative="1" as="geometry">
            <mxPoint x="766.0000000000005" y="1149" as="sourcePoint" />
            <mxPoint x="766.0000000000005" y="1031" as="targetPoint" />
          </mxGeometry>
        </mxCell>
        <mxCell id="cwe3W4yZKbdpXorPZWT0-14" value="" style="group" parent="cwe3W4yZKbdpXorPZWT0-1" vertex="1" connectable="0">
          <mxGeometry x="766" y="1031.5" width="360" height="22.5" as="geometry" />
        </mxCell>
        <mxCell id="cwe3W4yZKbdpXorPZWT0-15" value="" style="rounded=0;whiteSpace=wrap;html=1;fillColor=#080808;" parent="cwe3W4yZKbdpXorPZWT0-14" vertex="1">
          <mxGeometry width="359.99999999999994" height="21.09375" as="geometry" />
        </mxCell>
        <mxCell id="cwe3W4yZKbdpXorPZWT0-16" value="Example" style="text;html=1;strokeColor=none;fillColor=none;align=left;verticalAlign=middle;whiteSpace=wrap;rounded=0;fontColor=#FFFFFF;fontFamily=AkkuratStd;fontSize=13;spacingLeft=3;" parent="cwe3W4yZKbdpXorPZWT0-14" vertex="1">
          <mxGeometry width="360" height="22.5" as="geometry" />
        </mxCell>
        <mxCell id="cwe3W4yZKbdpXorPZWT0-17" value="&lt;div&gt;&lt;span style=&quot;font-size: 12px&quot;&gt;&lt;b&gt;Sheet 3&lt;/b&gt;&lt;/span&gt;&lt;/div&gt;  " style="text;strokeColor=none;fillColor=none;align=left;verticalAlign=top;rounded=0;fontSize=10;fontColor=#080808;fontFamily=AkkuratStd;spacingTop=-5;spacing=4;whiteSpace=wrap;html=1;" parent="cwe3W4yZKbdpXorPZWT0-1" vertex="1">
          <mxGeometry x="766" y="1053" width="360" height="37.5" as="geometry" />
        </mxCell>
        <mxCell id="cwe3W4yZKbdpXorPZWT0-18" value="" style="endArrow=none;html=1;fontSize=10;fontColor=#FFFFFF;" parent="cwe3W4yZKbdpXorPZWT0-1" edge="1">
          <mxGeometry width="50" height="50" relative="1" as="geometry">
            <mxPoint x="1125.9999999999995" y="1149.5" as="sourcePoint" />
            <mxPoint x="1125.9999999999995" y="1031.5" as="targetPoint" />
          </mxGeometry>
        </mxCell>
        <mxCell id="cwe3W4yZKbdpXorPZWT0-19" value="&lt;div&gt;&lt;font style=&quot;font-size: 10px&quot;&gt;Status:&lt;/font&gt;&lt;/div&gt;  " style="text;strokeColor=none;fillColor=none;align=left;verticalAlign=top;rounded=0;fontSize=10;fontColor=#080808;fontFamily=AkkuratStd;spacingTop=-5;spacing=4;whiteSpace=wrap;html=1;connectable=0;" parent="cwe3W4yZKbdpXorPZWT0-1" vertex="1">
          <mxGeometry x="766" y="1089.5" width="60" height="20" as="geometry" />
        </mxCell>
        <mxCell id="cwe3W4yZKbdpXorPZWT0-20" value="&lt;div&gt;&lt;font style=&quot;font-size: 10px&quot;&gt;Date:&lt;/font&gt;&lt;/div&gt;  " style="text;strokeColor=none;fillColor=none;align=left;verticalAlign=top;rounded=0;fontSize=10;fontColor=#080808;fontFamily=AkkuratStd;spacingTop=-5;spacing=4;whiteSpace=wrap;html=1;connectable=0;" parent="cwe3W4yZKbdpXorPZWT0-1" vertex="1">
          <mxGeometry x="766" y="1109.5" width="60" height="20" as="geometry" />
        </mxCell>
        <mxCell id="cwe3W4yZKbdpXorPZWT0-21" value="John Doe" style="rounded=0;whiteSpace=wrap;html=1;fontFamily=AkkuratStd;fontSize=10;fontColor=#080808;align=right;fillColor=none;connectable=0;" parent="cwe3W4yZKbdpXorPZWT0-1" vertex="1">
          <mxGeometry x="946" y="1089.5" width="180" height="20" as="geometry" />
        </mxCell>
        <mxCell id="cwe3W4yZKbdpXorPZWT0-22" value="1" style="rounded=0;whiteSpace=wrap;html=1;fontFamily=AkkuratStd;fontSize=10;fontColor=#080808;align=right;fillColor=none;connectable=0;" parent="cwe3W4yZKbdpXorPZWT0-1" vertex="1">
          <mxGeometry x="946" y="1109.5" width="180" height="20" as="geometry" />
        </mxCell>
        <mxCell id="cwe3W4yZKbdpXorPZWT0-23" value="&lt;font style=&quot;font-size: 6px&quot;&gt;example.drawio&lt;/font&gt;" style="rounded=0;whiteSpace=wrap;html=1;fontFamily=AkkuratStd;fontSize=10;fontColor=#080808;align=right;fillColor=none;connectable=0;" parent="cwe3W4yZKbdpXorPZWT0-1" vertex="1">
          <mxGeometry x="946" y="1129.5" width="180" height="19.5" as="geometry" />
        </mxCell>
        <mxCell id="cwe3W4yZKbdpXorPZWT0-24" value="&lt;div&gt;&lt;font style=&quot;font-size: 10px&quot;&gt;Verfasser:&lt;/font&gt;&lt;/div&gt;  " style="text;strokeColor=none;fillColor=none;align=left;verticalAlign=top;rounded=0;fontSize=10;fontColor=#080808;fontFamily=AkkuratStd;spacingTop=-5;spacing=4;whiteSpace=wrap;html=1;connectable=0;" parent="cwe3W4yZKbdpXorPZWT0-1" vertex="1">
          <mxGeometry x="946" y="1089.5" width="60" height="20" as="geometry" />
        </mxCell>
        <mxCell id="cwe3W4yZKbdpXorPZWT0-25" value="&lt;div&gt;&lt;font style=&quot;font-size: 10px&quot;&gt;Plannummer:&lt;/font&gt;&lt;/div&gt;  " style="text;strokeColor=none;fillColor=none;align=left;verticalAlign=top;rounded=0;fontSize=10;fontColor=#080808;fontFamily=AkkuratStd;spacingTop=-5;spacing=4;whiteSpace=wrap;html=1;connectable=0;" parent="cwe3W4yZKbdpXorPZWT0-1" vertex="1">
          <mxGeometry x="946" y="1109.5" width="60" height="20" as="geometry" />
        </mxCell>
        <mxCell id="cwe3W4yZKbdpXorPZWT0-26" value="&lt;div&gt;&lt;font style=&quot;font-size: 10px&quot;&gt;Filename:&lt;/font&gt;&lt;/div&gt;  " style="text;strokeColor=none;fillColor=none;align=left;verticalAlign=top;rounded=0;fontSize=10;fontColor=#080808;fontFamily=AkkuratStd;spacingTop=-5;spacing=4;whiteSpace=wrap;html=1;connectable=0;" parent="cwe3W4yZKbdpXorPZWT0-1" vertex="1">
          <mxGeometry x="946" y="1129.5" width="60" height="20" as="geometry" />
        </mxCell>
        <mxCell id="cwe3W4yZKbdpXorPZWT0-27" value="NOTES" style="text;html=1;strokeColor=none;fillColor=none;align=left;verticalAlign=middle;whiteSpace=wrap;rounded=0;fontColor=#FFFFFF;fontFamily=AkkuratStd;fontSize=10;" parent="cwe3W4yZKbdpXorPZWT0-1" vertex="1">
          <mxGeometry x="1126" y="1024" width="98" height="15" as="geometry" />
        </mxCell>
        <mxCell id="cwe3W4yZKbdpXorPZWT0-28" value="&lt;div&gt;&lt;font style=&quot;font-size: 10px&quot;&gt;1&lt;/font&gt;&lt;/div&gt;  " style="text;strokeColor=none;fillColor=none;align=right;verticalAlign=top;rounded=0;fontSize=10;fontColor=#080808;fontFamily=AkkuratStd;spacingTop=-5;spacing=4;whiteSpace=wrap;html=1;connectable=0;" parent="cwe3W4yZKbdpXorPZWT0-1" vertex="1">
          <mxGeometry x="820" y="1089.5" width="126" height="20" as="geometry" />
        </mxCell>
        <mxCell id="cwe3W4yZKbdpXorPZWT0-29" value="&lt;div&gt;dd.mm.yyyy&lt;/div&gt;  " style="text;strokeColor=none;fillColor=none;align=right;verticalAlign=top;rounded=0;fontSize=10;fontColor=#080808;fontFamily=AkkuratStd;spacingTop=-5;spacing=4;whiteSpace=wrap;html=1;connectable=0;" parent="cwe3W4yZKbdpXorPZWT0-1" vertex="1">
          <mxGeometry x="820" y="1109.5" width="126" height="20" as="geometry" />
        </mxCell>
        <mxCell id="cwe3W4yZKbdpXorPZWT0-30" value="Drawing" parent="cwe3W4yZKbdpXorPZWT0-0" />
        <object label="Device 6&lt;br&gt;&lt;span style=&quot;font-size: 6px&quot;&gt;ADB, erf&lt;/span&gt;" type="device" id="cwe3W4yZKbdpXorPZWT0-31">
          <mxCell style="rounded=0;whiteSpace=wrap;html=1;align=center;verticalAlign=top;fontStyle=1;container=1;fillColor=#f5f5f5;strokeColor=#666666;fontColor=#333333;connectable=0;collapsible=0;dropTarget=1;metaEdit=0;recursiveResize=0;resizable=1;resizeHeight=0;allowArrows=0;noLabel=0;labelPadding=0;perimeter=rectanglePerimeter;" parent="cwe3W4yZKbdpXorPZWT0-30" vertex="1">
            <mxGeometry x="1320" y="360" width="120" height="100" as="geometry">
              <mxRectangle width="90" height="40" as="alternateBounds" />
            </mxGeometry>
          </mxCell>
        </object>
        <mxCell id="cwe3W4yZKbdpXorPZWT0-32" value="Output 1" style="text;html=1;strokeColor=none;fillColor=none;align=right;verticalAlign=middle;rounded=0;fontSize=10;spacingLeft=2;spacingRight=2;fontStyle=0;container=0;resizeHeight=1;" parent="cwe3W4yZKbdpXorPZWT0-31" vertex="1">
          <mxGeometry x="60" y="40" width="60" height="20" as="geometry" />
        </mxCell>
        <mxCell id="cwe3W4yZKbdpXorPZWT0-33" value="Input 1" style="text;html=1;strokeColor=none;fillColor=none;align=left;verticalAlign=middle;rounded=0;fontSize=10;fontStyle=0;container=0;spacingRight=2;spacingLeft=2;" parent="cwe3W4yZKbdpXorPZWT0-31" vertex="1">
          <mxGeometry y="40" width="60" height="20" as="geometry" />
        </mxCell>
        <mxCell id="cwe3W4yZKbdpXorPZWT0-34" value="Input 2" style="text;html=1;strokeColor=none;fillColor=none;align=left;verticalAlign=middle;rounded=0;fontSize=10;fontStyle=0;container=0;spacingRight=2;spacingLeft=2;" parent="cwe3W4yZKbdpXorPZWT0-31" vertex="1">
          <mxGeometry y="60" width="60" height="20" as="geometry" />
        </mxCell>
        <mxCell id="cwe3W4yZKbdpXorPZWT0-35" value="Power" style="text;html=1;strokeColor=none;fillColor=none;align=left;verticalAlign=middle;rounded=0;fontSize=10;fontStyle=0;container=0;spacingRight=2;spacingLeft=2;" parent="cwe3W4yZKbdpXorPZWT0-31" vertex="1">
          <mxGeometry y="80" width="60" height="20" as="geometry" />
        </mxCell>
        <mxCell id="cwe3W4yZKbdpXorPZWT0-36" value="Output 2" style="text;html=1;strokeColor=none;fillColor=none;align=right;verticalAlign=middle;rounded=0;fontSize=10;spacingLeft=2;spacingRight=2;fontStyle=0;container=0;" parent="cwe3W4yZKbdpXorPZWT0-31" vertex="1">
          <mxGeometry x="60" y="60" width="60" height="20" as="geometry" />
        </mxCell>
        <mxCell id="cwe3W4yZKbdpXorPZWT0-37" value="" style="group" parent="cwe3W4yZKbdpXorPZWT0-30" vertex="1" connectable="0">
          <mxGeometry x="990" y="300" width="120" height="111" as="geometry" />
        </mxCell>
        <mxCell id="cwe3W4yZKbdpXorPZWT0-38" value="" style="endArrow=none;dashed=1;html=1;strokeWidth=2;fontSize=10;fontColor=#FFFFFF;exitX=0.5;exitY=0;exitDx=0;exitDy=0;dashPattern=1 1;entryX=0.5;entryY=1;entryDx=0;entryDy=0;spacingLeft=4;spacingRight=4;fontStyle=0;rounded=0;" parent="cwe3W4yZKbdpXorPZWT0-37" source="cwe3W4yZKbdpXorPZWT0-41" target="cwe3W4yZKbdpXorPZWT0-43" edge="1">
          <mxGeometry y="-9" width="50" height="50" as="geometry">
            <mxPoint x="30" y="131" as="sourcePoint" />
            <mxPoint x="30" y="61" as="targetPoint" />
          </mxGeometry>
        </mxCell>
        <mxCell id="cwe3W4yZKbdpXorPZWT0-39" value="" style="shape=tape;whiteSpace=wrap;html=1;labelBackgroundColor=#ffffff;fillColor=#f5f5f5;fontSize=10;align=right;labelBorderColor=none;size=0.2;strokeColor=#666666;fontColor=#333333;spacingLeft=4;spacingRight=4;fontStyle=0;container=0;" parent="cwe3W4yZKbdpXorPZWT0-37" vertex="1">
          <mxGeometry y="51" width="120" height="40" as="geometry" />
        </mxCell>
        <mxCell id="cwe3W4yZKbdpXorPZWT0-40" value="" style="shape=tape;whiteSpace=wrap;html=1;labelBackgroundColor=#ffffff;fillColor=#f5f5f5;fontSize=10;align=right;labelBorderColor=none;size=0.2;strokeColor=#666666;fontColor=#333333;spacingLeft=4;spacingRight=4;fontStyle=0;container=0;" parent="cwe3W4yZKbdpXorPZWT0-37" vertex="1">
          <mxGeometry y="71" width="120" height="40" as="geometry" />
        </mxCell>
        <mxCell id="cwe3W4yZKbdpXorPZWT0-41" value="" style="rounded=0;whiteSpace=wrap;html=1;align=center;verticalAlign=top;fontStyle=1;container=0;fillColor=#f5f5f5;strokeColor=#666666;fontColor=#333333;spacingLeft=4;spacingRight=4;" parent="cwe3W4yZKbdpXorPZWT0-37" vertex="1">
          <mxGeometry y="61" width="120" height="40" as="geometry" />
        </mxCell>
        <mxCell id="cwe3W4yZKbdpXorPZWT0-42" value="" style="shape=tape;whiteSpace=wrap;html=1;labelBackgroundColor=#ffffff;fillColor=#f5f5f5;fontSize=10;align=right;labelBorderColor=none;size=0.2;strokeColor=#666666;fontColor=#333333;spacingLeft=4;spacingRight=4;fontStyle=0;container=0;" parent="cwe3W4yZKbdpXorPZWT0-37" vertex="1">
          <mxGeometry y="1" width="120" height="50" as="geometry" />
        </mxCell>
        <mxCell id="cwe3W4yZKbdpXorPZWT0-43" value="Device 5&lt;br&gt;&lt;font style=&quot;font-size: 6px&quot;&gt;werq, lkj&lt;/font&gt;" style="rounded=0;whiteSpace=wrap;html=1;align=center;verticalAlign=top;fontStyle=1;container=0;fillColor=#f5f5f5;strokeColor=#666666;fontColor=#333333;spacingLeft=4;spacingRight=4;" parent="cwe3W4yZKbdpXorPZWT0-37" vertex="1">
          <mxGeometry width="120" height="40" as="geometry" />
        </mxCell>
        <mxCell id="cwe3W4yZKbdpXorPZWT0-44" value="Output 01" style="text;html=1;strokeColor=none;fillColor=none;align=right;verticalAlign=middle;rounded=0;fontSize=10;spacingLeft=4;spacingRight=4;fontStyle=0;container=0;" parent="cwe3W4yZKbdpXorPZWT0-37" vertex="1">
          <mxGeometry x="60" y="61" width="60" height="20" as="geometry" />
        </mxCell>
        <mxCell id="cwe3W4yZKbdpXorPZWT0-45" value="Output 02" style="text;html=1;strokeColor=none;fillColor=none;align=right;verticalAlign=middle;rounded=0;fontSize=10;spacingLeft=4;spacingRight=4;fontStyle=0;container=0;" parent="cwe3W4yZKbdpXorPZWT0-37" vertex="1">
          <mxGeometry x="60" y="81" width="60" height="20" as="geometry" />
        </mxCell>
        <mxCell id="cwe3W4yZKbdpXorPZWT0-46" value="" style="endArrow=none;html=1;fontSize=10;exitX=0;exitY=1;exitDx=0;exitDy=0;entryX=1;entryY=1;entryDx=0;entryDy=0;fontColor=#FFFFFF;rounded=0;strokeWidth=2;targetPerimeterSpacing=0;sourcePerimeterSpacing=0;strokeColor=#F5F5F5;spacingLeft=4;spacingRight=4;fontStyle=0" parent="cwe3W4yZKbdpXorPZWT0-37" source="cwe3W4yZKbdpXorPZWT0-43" target="cwe3W4yZKbdpXorPZWT0-43" edge="1">
          <mxGeometry y="-9" width="50" height="50" as="geometry">
            <mxPoint x="60" y="181" as="sourcePoint" />
            <mxPoint x="110" y="131" as="targetPoint" />
          </mxGeometry>
        </mxCell>
        <mxCell id="cwe3W4yZKbdpXorPZWT0-47" value="" style="endArrow=none;html=1;fontSize=10;exitX=0;exitY=0;exitDx=0;exitDy=0;entryX=1;entryY=0;entryDx=0;entryDy=0;fontColor=#FFFFFF;rounded=0;strokeWidth=2;targetPerimeterSpacing=0;sourcePerimeterSpacing=0;strokeColor=#F5F5F5;spacingLeft=4;spacingRight=4;fontStyle=0" parent="cwe3W4yZKbdpXorPZWT0-37" source="cwe3W4yZKbdpXorPZWT0-41" target="cwe3W4yZKbdpXorPZWT0-41" edge="1">
          <mxGeometry y="-9.329999999999927" width="50" height="50" as="geometry">
            <mxPoint y="60.66999999999996" as="sourcePoint" />
            <mxPoint x="120" y="60.66999999999996" as="targetPoint" />
          </mxGeometry>
        </mxCell>
        <mxCell id="cwe3W4yZKbdpXorPZWT0-48" value="" style="endArrow=none;html=1;fontSize=10;exitX=0;exitY=1;exitDx=0;exitDy=0;entryX=1;entryY=1;entryDx=0;entryDy=0;fontColor=#FFFFFF;rounded=0;strokeWidth=2;targetPerimeterSpacing=0;sourcePerimeterSpacing=0;strokeColor=#F5F5F5;spacingLeft=4;spacingRight=4;fontStyle=0" parent="cwe3W4yZKbdpXorPZWT0-37" source="cwe3W4yZKbdpXorPZWT0-41" target="cwe3W4yZKbdpXorPZWT0-41" edge="1">
          <mxGeometry x="10" y="0.6700000000000728" width="50" height="50" as="geometry">
            <mxPoint x="10" y="71" as="sourcePoint" />
            <mxPoint x="130" y="71" as="targetPoint" />
          </mxGeometry>
        </mxCell>
        <mxCell id="cwe3W4yZKbdpXorPZWT0-49" value="Input 1" style="text;html=1;strokeColor=none;fillColor=none;align=left;verticalAlign=middle;rounded=0;fontSize=10;fontStyle=0;container=0;spacingRight=2;spacingLeft=2;" parent="cwe3W4yZKbdpXorPZWT0-37" vertex="1">
          <mxGeometry y="61" width="60" height="20" as="geometry" />
        </mxCell>
        <mxCell id="cwe3W4yZKbdpXorPZWT0-50" value="Input 2" style="text;html=1;strokeColor=none;fillColor=none;align=left;verticalAlign=middle;rounded=0;fontSize=10;fontStyle=0;container=0;spacingRight=2;spacingLeft=2;" parent="cwe3W4yZKbdpXorPZWT0-37" vertex="1">
          <mxGeometry y="81" width="60" height="20" as="geometry" />
        </mxCell>
        <mxCell id="cwe3W4yZKbdpXorPZWT0-51" value="" style="group;spacingLeft=4;spacingRight=4;" parent="cwe3W4yZKbdpXorPZWT0-30" vertex="1" connectable="0">
          <mxGeometry x="450" y="340" width="200" height="60" as="geometry" />
        </mxCell>
        <mxCell id="cwe3W4yZKbdpXorPZWT0-52" value="" style="group;spacingLeft=4;spacingRight=4;" parent="cwe3W4yZKbdpXorPZWT0-51" vertex="1" connectable="0">
          <mxGeometry width="200" height="60" as="geometry" />
        </mxCell>
        <mxCell id="cwe3W4yZKbdpXorPZWT0-53" value="" style="endArrow=none;dashed=1;html=1;strokeWidth=2;fontSize=10;fontColor=#FFFFFF;entryX=1;entryY=0.5;entryDx=0;entryDy=0;dashPattern=1 1;exitX=0;exitY=0.5;exitDx=0;exitDy=0;spacingLeft=4;spacingRight=4;rounded=0;" parent="cwe3W4yZKbdpXorPZWT0-52" source="cwe3W4yZKbdpXorPZWT0-59" target="cwe3W4yZKbdpXorPZWT0-56" edge="1">
          <mxGeometry x="60" y="-160" width="50" height="50" as="geometry">
            <mxPoint x="80" y="19" as="sourcePoint" />
            <mxPoint x="119.03999999999996" y="-104.85000000000002" as="targetPoint" />
          </mxGeometry>
        </mxCell>
        <mxCell id="cwe3W4yZKbdpXorPZWT0-54" value="Port 1" style="text;html=1;strokeColor=none;fillColor=none;align=right;verticalAlign=middle;rounded=0;fontSize=10;spacingLeft=4;spacingRight=4;fontStyle=0;container=0;" parent="cwe3W4yZKbdpXorPZWT0-52" vertex="1">
          <mxGeometry x="140" y="20" width="60" height="20" as="geometry" />
        </mxCell>
        <mxCell id="cwe3W4yZKbdpXorPZWT0-55" value="" style="shape=tape;whiteSpace=wrap;html=1;labelBackgroundColor=#ffffff;fillColor=#f5f5f5;fontSize=10;align=right;labelBorderColor=none;size=0.2;strokeColor=#666666;fontColor=#333333;rotation=90;spacingLeft=4;spacingRight=4;" parent="cwe3W4yZKbdpXorPZWT0-52" vertex="1">
          <mxGeometry x="20" y="20" width="60" height="20" as="geometry" />
        </mxCell>
        <mxCell id="cwe3W4yZKbdpXorPZWT0-56" value="ELCB 12fd" style="rounded=0;whiteSpace=wrap;html=1;align=center;verticalAlign=middle;fontStyle=1;container=0;fillColor=#f5f5f5;strokeColor=#666666;fontColor=#333333;spacingLeft=4;spacingRight=4;" parent="cwe3W4yZKbdpXorPZWT0-52" vertex="1">
          <mxGeometry width="50" height="60" as="geometry" />
        </mxCell>
        <mxCell id="cwe3W4yZKbdpXorPZWT0-57" value="" style="endArrow=none;html=1;fontSize=10;exitX=1;exitY=0;exitDx=0;exitDy=0;entryX=1;entryY=1;entryDx=0;entryDy=0;fontColor=#FFFFFF;rounded=0;strokeWidth=2;targetPerimeterSpacing=0;sourcePerimeterSpacing=0;strokeColor=#F5F5F5;spacingLeft=4;spacingRight=4;" parent="cwe3W4yZKbdpXorPZWT0-52" source="cwe3W4yZKbdpXorPZWT0-56" target="cwe3W4yZKbdpXorPZWT0-56" edge="1">
          <mxGeometry x="70" y="-150.32999999999993" width="50" height="50" as="geometry">
            <mxPoint x="90" y="10" as="sourcePoint" />
            <mxPoint x="90" y="50" as="targetPoint" />
          </mxGeometry>
        </mxCell>
        <mxCell id="cwe3W4yZKbdpXorPZWT0-58" value="" style="shape=tape;whiteSpace=wrap;html=1;labelBackgroundColor=#ffffff;fillColor=#f5f5f5;fontSize=10;align=right;labelBorderColor=none;size=0.2;strokeColor=#666666;fontColor=#333333;rotation=90;spacingLeft=4;spacingRight=4;" parent="cwe3W4yZKbdpXorPZWT0-52" vertex="1">
          <mxGeometry x="50" y="20" width="60" height="20" as="geometry" />
        </mxCell>
        <mxCell id="cwe3W4yZKbdpXorPZWT0-59" value="Power Socket" style="rounded=0;whiteSpace=wrap;html=1;align=center;verticalAlign=top;fontStyle=1;container=0;fillColor=#f5f5f5;strokeColor=#666666;fontColor=#333333;spacingLeft=4;spacingRight=4;" parent="cwe3W4yZKbdpXorPZWT0-52" vertex="1">
          <mxGeometry x="80" width="120" height="60" as="geometry" />
        </mxCell>
        <mxCell id="cwe3W4yZKbdpXorPZWT0-60" value="" style="endArrow=none;html=1;fontSize=10;exitX=0;exitY=0;exitDx=0;exitDy=0;entryX=0;entryY=1;entryDx=0;entryDy=0;fontColor=#FFFFFF;rounded=0;strokeWidth=2;targetPerimeterSpacing=0;sourcePerimeterSpacing=0;strokeColor=#F5F5F5;spacingLeft=4;spacingRight=4;" parent="cwe3W4yZKbdpXorPZWT0-52" source="cwe3W4yZKbdpXorPZWT0-59" target="cwe3W4yZKbdpXorPZWT0-59" edge="1">
          <mxGeometry x="60" y="-160.32999999999993" width="50" height="50" as="geometry">
            <mxPoint x="50" y="-20" as="sourcePoint" />
            <mxPoint x="170" y="-20" as="targetPoint" />
          </mxGeometry>
        </mxCell>
        <mxCell id="cwe3W4yZKbdpXorPZWT0-61" value="Port 1" style="text;html=1;strokeColor=none;fillColor=none;align=right;verticalAlign=middle;rounded=0;fontSize=10;spacingLeft=4;spacingRight=4;fontStyle=0;container=0;" parent="cwe3W4yZKbdpXorPZWT0-52" vertex="1">
          <mxGeometry x="140" y="20" width="60" height="20" as="geometry" />
        </mxCell>
        <mxCell id="cwe3W4yZKbdpXorPZWT0-62" value="Port 2" style="text;html=1;strokeColor=none;fillColor=none;align=right;verticalAlign=middle;rounded=0;fontSize=10;spacingLeft=4;spacingRight=4;fontStyle=0;container=0;" parent="cwe3W4yZKbdpXorPZWT0-52" vertex="1">
          <mxGeometry x="140" y="40" width="60" height="20" as="geometry" />
        </mxCell>
        <object label="" type="cable" id="cwe3W4yZKbdpXorPZWT0-63">
          <mxCell style="endArrow=oval;html=1;labelBackgroundColor=none;startArrow=oval;startFill=1;endFill=1;spacingLeft=2;spacingRight=2;edgeStyle=orthogonalEdgeStyle;rounded=1;fontSize=11;fontColor=#000000;strokeColor=#000000;exitX=1;exitY=0.5;exitDx=0;exitDy=0;entryX=0;entryY=0.5;entryDx=0;entryDy=0;" parent="cwe3W4yZKbdpXorPZWT0-30" source="cwe3W4yZKbdpXorPZWT0-61" target="cwe3W4yZKbdpXorPZWT0-50" edge="1">
            <mxGeometry relative="1" as="geometry">
              <mxPoint x="750" y="620" as="sourcePoint" />
              <mxPoint x="910" y="620" as="targetPoint" />
            </mxGeometry>
          </mxCell>
        </object>
        <mxCell id="cwe3W4yZKbdpXorPZWT0-64" value="Source" style="edgeLabel;resizable=0;html=1;align=left;verticalAlign=bottom;spacingLeft=2;spacingRight=2;labelBackgroundColor=none;fontSize=11;fontColor=#000000;" parent="cwe3W4yZKbdpXorPZWT0-63" connectable="0" vertex="1">
          <mxGeometry x="-1" relative="1" as="geometry" />
        </mxCell>
        <mxCell id="cwe3W4yZKbdpXorPZWT0-65" value="Target" style="edgeLabel;resizable=0;html=1;align=right;verticalAlign=bottom;spacingLeft=2;spacingRight=2;labelBackgroundColor=none;fontSize=11;fontColor=#000000;" parent="cwe3W4yZKbdpXorPZWT0-63" connectable="0" vertex="1">
          <mxGeometry x="1" relative="1" as="geometry" />
        </mxCell>
        <object label="" type="cable" id="cwe3W4yZKbdpXorPZWT0-66">
          <mxCell style="endArrow=oval;html=1;labelBackgroundColor=none;startArrow=oval;startFill=1;endFill=1;spacingLeft=2;spacingRight=2;edgeStyle=orthogonalEdgeStyle;rounded=1;fontSize=11;fontColor=#000000;strokeColor=#000000;exitX=1;exitY=0.5;exitDx=0;exitDy=0;entryX=0;entryY=0.5;entryDx=0;entryDy=0;" parent="cwe3W4yZKbdpXorPZWT0-30" source="cwe3W4yZKbdpXorPZWT0-44" target="cwe3W4yZKbdpXorPZWT0-33" edge="1">
            <mxGeometry relative="1" as="geometry">
              <mxPoint x="880" y="540" as="sourcePoint" />
              <mxPoint x="1040" y="540" as="targetPoint" />
            </mxGeometry>
          </mxCell>
        </object>
        <mxCell id="cwe3W4yZKbdpXorPZWT0-67" value="00100" style="edgeLabel;resizable=0;html=1;align=left;verticalAlign=bottom;spacingLeft=2;spacingRight=2;labelBackgroundColor=none;fontSize=11;fontColor=#000000;" parent="cwe3W4yZKbdpXorPZWT0-66" connectable="0" vertex="1">
          <mxGeometry x="-1" relative="1" as="geometry" />
        </mxCell>
        <mxCell id="cwe3W4yZKbdpXorPZWT0-68" value="&lt;span style=&quot;text-align: left;&quot;&gt;00100&lt;/span&gt;" style="edgeLabel;resizable=0;html=1;align=right;verticalAlign=bottom;spacingLeft=2;spacingRight=2;labelBackgroundColor=none;fontSize=11;fontColor=#000000;" parent="cwe3W4yZKbdpXorPZWT0-66" connectable="0" vertex="1">
          <mxGeometry x="1" relative="1" as="geometry" />
        </mxCell>
        <object label="Device 7&lt;br&gt;&lt;span style=&quot;font-size: 6px&quot;&gt;tzu, cvbxc&lt;/span&gt;" type="device" id="gFErcBWI-OFST6LREXep-0">
          <mxCell style="rounded=0;whiteSpace=wrap;html=1;align=center;verticalAlign=top;fontStyle=1;container=1;fillColor=#f5f5f5;strokeColor=#666666;fontColor=#333333;connectable=0;collapsible=0;dropTarget=1;metaEdit=0;recursiveResize=0;resizable=1;resizeHeight=0;allowArrows=0;noLabel=0;labelPadding=0;perimeter=rectanglePerimeter;" vertex="1" parent="cwe3W4yZKbdpXorPZWT0-30">
            <mxGeometry x="800" y="560" width="120" height="100" as="geometry">
              <mxRectangle width="90" height="40" as="alternateBounds" />
            </mxGeometry>
          </mxCell>
        </object>
        <mxCell id="gFErcBWI-OFST6LREXep-1" value="Output 1" style="text;html=1;strokeColor=none;fillColor=none;align=right;verticalAlign=middle;rounded=0;fontSize=10;spacingLeft=2;spacingRight=2;fontStyle=0;container=0;resizeHeight=1;" vertex="1" parent="gFErcBWI-OFST6LREXep-0">
          <mxGeometry x="60" y="40" width="60" height="20" as="geometry" />
        </mxCell>
        <mxCell id="gFErcBWI-OFST6LREXep-2" value="Input 1" style="text;html=1;strokeColor=none;fillColor=none;align=left;verticalAlign=middle;rounded=0;fontSize=10;fontStyle=0;container=0;spacingRight=2;spacingLeft=2;" vertex="1" parent="gFErcBWI-OFST6LREXep-0">
          <mxGeometry y="40" width="60" height="20" as="geometry" />
        </mxCell>
        <mxCell id="gFErcBWI-OFST6LREXep-3" value="Input 2" style="text;html=1;strokeColor=none;fillColor=none;align=left;verticalAlign=middle;rounded=0;fontSize=10;fontStyle=0;container=0;spacingRight=2;spacingLeft=2;" vertex="1" parent="gFErcBWI-OFST6LREXep-0">
          <mxGeometry y="60" width="60" height="20" as="geometry" />
        </mxCell>
        <mxCell id="gFErcBWI-OFST6LREXep-4" value="Power" style="text;html=1;strokeColor=none;fillColor=none;align=left;verticalAlign=middle;rounded=0;fontSize=10;fontStyle=0;container=0;spacingRight=2;spacingLeft=2;" vertex="1" parent="gFErcBWI-OFST6LREXep-0">
          <mxGeometry y="80" width="60" height="20" as="geometry" />
        </mxCell>
        <mxCell id="gFErcBWI-OFST6LREXep-5" value="Output 2" style="text;html=1;strokeColor=none;fillColor=none;align=right;verticalAlign=middle;rounded=0;fontSize=10;spacingLeft=2;spacingRight=2;fontStyle=0;container=0;" vertex="1" parent="gFErcBWI-OFST6LREXep-0">
          <mxGeometry x="60" y="60" width="60" height="20" as="geometry" />
        </mxCell>
      </root>
    </mxGraphModel>
  </diagram>
</mxfile>
